<?xml version="1.0" encoding="UTF-8" standalone="no"?>
<!-- Created with Inkscape (http://www.inkscape.org/) -->

<svg
   width="383.21381mm"
   height="88.870758mm"
   viewBox="0 0 383.21381 88.870758"
   version="1.1"
   id="svg1"
   xml:space="preserve"
   inkscape:export-filename="bitmap.svg"
   inkscape:export-xdpi="96"
   inkscape:export-ydpi="96"
   xmlns:inkscape="http://www.inkscape.org/namespaces/inkscape"
   xmlns:sodipodi="http://sodipodi.sourceforge.net/DTD/sodipodi-0.dtd"
   xmlns="http://www.w3.org/2000/svg"
   xmlns:svg="http://www.w3.org/2000/svg"><sodipodi:namedview
     id="namedview1"
     pagecolor="#505050"
     bordercolor="#eeeeee"
     borderopacity="1"
     inkscape:showpageshadow="0"
     inkscape:pageopacity="0"
     inkscape:pagecheckerboard="0"
     inkscape:deskcolor="#505050"
     inkscape:document-units="mm"><inkscape:page
       x="0"
       y="0"
       width="383.21381"
       height="88.870758"
       id="page2"
       margin="0"
       bleed="0" /></sodipodi:namedview><defs
     id="defs1" /><g
     inkscape:label="Capa 1"
     inkscape:groupmode="layer"
     id="layer1"
     transform="translate(192.61957,-123.08874)"><path
       style="fill:#currentColor"
       d="m -141.29296,211.37282 c -0.50933,-0.35058 -1.75948,-1.2233 -2.77813,-1.93938 l -1.85208,-1.30197 2.11666,-0.16284 c 1.16417,-0.0896 5.37075,-0.12954 9.34797,-0.0888 3.97721,0.0407 7.28765,0.13036 7.35654,0.19924 0.0689,0.0689 -1.04207,0.94231 -2.4688,1.94093 l -2.59404,1.81568 -4.10104,0.0873 c -3.97101,0.0845 -4.1304,0.0671 -5.02708,-0.55012 z m 2.55128,-4.98542 c -0.85237,-0.44929 -2.37042,-1.34777 -3.37344,-1.99662 l -1.82368,-1.17973 v -3.5852 c 0,-3.58519 0,-3.58519 0.8599,-4.39183 0.47294,-0.44365 1.27661,-0.98781 1.78594,-1.20925 0.59096,-0.25693 2.08409,-0.44535 4.12655,-0.52073 2.42143,-0.0894 3.54853,-0.0163 4.63021,0.30026 0.78633,0.2301 1.87618,0.78832 2.42188,1.24047 0.99219,0.82211 0.99219,0.82211 0.99219,4.49364 v 3.67154 l -1.66997,1.19166 c -0.91849,0.65542 -2.43654,1.55431 -3.37344,1.99754 -0.93691,0.44323 -2.00112,0.8057 -2.36492,0.80551 -0.36381,-2e-4 -1.35885,-0.36796 -2.21122,-0.81726 z m 6.8179,-4.22935 c 0.37674,-0.44773 0.68498,-0.90552 0.68498,-1.01733 0,-0.1118 -0.23812,-0.41877 -0.52916,-0.68216 -0.51106,-0.4625 -0.54812,-0.46174 -1.08284,0.0222 -0.30453,0.27558 -0.6712,0.72066 -0.81484,0.98906 -0.19404,0.36255 -0.14319,0.61835 0.1978,0.99514 0.25244,0.27894 0.549,0.50716 0.65903,0.50716 0.11003,0 0.5083,-0.36632 0.88503,-0.81405 z m -7.15601,-0.0362 c 0.22892,-0.36352 0.13473,-0.61079 -0.47515,-1.24736 -0.41837,-0.43669 -0.86087,-0.73204 -0.98334,-0.65635 -0.12247,0.0757 -0.33975,0.35639 -0.48285,0.62377 -0.19637,0.36692 -0.12449,0.65867 0.29309,1.18953 0.3043,0.38685 0.7354,0.66747 0.958,0.62359 0.2226,-0.0439 0.53322,-0.28381 0.69025,-0.53318 z m 12.59814,4.54444 c -0.1587,-0.29654 -0.21523,-0.77016 -0.12562,-1.0525 0.0973,-0.30656 0.5892,-0.64105 1.22118,-0.8304 0.91065,-0.27283 1.21274,-0.5771 2.16594,-2.18158 1.01831,-1.71407 1.11844,-2.05053 1.24088,-4.16968 l 0.13318,-2.30516 3.30729,-2.09279 c 1.81901,-1.15103 7.05627,-4.55558 11.63835,-7.56566 7.688278,-5.05061 8.525243,-5.53242 10.847915,-6.24464 1.384273,-0.42448 4.568828,-1.36581 7.07679,-2.09185 4.559931,-1.32008 4.559931,-1.32008 6.570147,-0.6442 1.105618,0.37173 1.911149,0.77288 1.790069,0.89144 -0.121081,0.11857 -2.184678,1.48771 -4.585772,3.04255 -2.401093,1.55484 -6.925469,4.46088 -10.054167,6.45788 -3.128698,1.997 -6.521982,4.1319 -7.540622,4.74422 -1.01865,0.61233 -3.69755,2.29764 -5.95313,3.74513 -2.25557,1.44749 -5.26748,3.37651 -6.69314,4.28671 -1.42566,0.91019 -3.39019,2.17428 -4.36563,2.80908 -0.97543,0.6348 -2.70568,1.73613 -3.84499,2.4474 -1.13932,0.71127 -2.17692,1.29321 -2.3058,1.29321 -0.12887,0 -0.36416,-0.24262 -0.52287,-0.53916 z m -22.75301,-0.73995 c -0.94358,-0.55799 -2.6681,-1.65756 -3.83226,-2.44349 -1.16417,-0.78593 -2.32153,-1.54978 -2.57191,-1.69745 -0.25038,-0.14767 -0.90523,-0.58222 -1.45521,-0.96567 -0.54998,-0.38345 -4.6909,-3.0184 -9.20205,-5.85545 -4.51115,-2.83704 -11.6549,-7.39023 -15.875,-10.1182 -4.2201,-2.72797 -8.298,-5.31337 -9.06198,-5.74533 -0.76398,-0.43197 -1.38791,-0.86333 -1.3865,-0.95857 0.001,-0.0952 0.80865,-0.44108 1.79387,-0.7685 0.98522,-0.32742 1.97877,-0.59531 2.20788,-0.59531 0.22912,0 2.78539,0.70164 5.68061,1.5592 2.89522,0.85755 5.94709,1.80049 6.78193,2.09542 0.83483,0.29492 4.16859,2.16147 7.40833,4.14789 3.23974,1.98641 6.48576,3.98273 7.21336,4.43626 0.7276,0.45353 3.37674,2.16692 5.88698,3.80754 l 4.56406,2.98295 v 1.75811 c 0,0.96697 0.1882,2.4844 0.41822,3.37208 0.23002,0.88768 0.59512,1.95604 0.81132,2.37414 0.22305,0.43133 0.81473,0.93425 1.36772,1.16256 0.53604,0.22131 1.18298,0.58757 1.43764,0.81391 0.25466,0.22635 0.46302,0.69074 0.46302,1.03199 0,0.41664 -0.15348,0.62045 -0.46722,0.62045 -0.25697,0 -1.23924,-0.45654 -2.18281,-1.01453 z m 210.083363,-1.51299 c -0.945886,-0.20283 -2.434167,-0.62536 -3.307292,-0.93894 -0.873125,-0.31359 -2.182812,-0.86934 -2.910417,-1.23501 -0.727604,-0.36567 -2.215885,-1.26582 -3.307291,-2.00034 -1.091407,-0.73452 -2.884931,-2.24525 -3.985609,-3.35718 -1.100679,-1.11193 -2.623884,-2.95263 -3.3849,-4.09045 -0.761017,-1.13781 -1.846826,-3.03333 -2.412909,-4.21226 -0.566083,-1.17893 -1.2654,-2.85788 -1.554037,-3.73101 -0.288638,-0.87312 -0.722533,-2.54 -0.964211,-3.70417 -0.241678,-1.16416 -0.504215,-3.66447 -0.583415,-5.55625 -0.08298,-1.98212 -0.01298,-4.50465 0.165211,-5.95312 0.170067,-1.38245 0.549711,-3.46604 0.843653,-4.63021 0.293942,-1.16417 0.964937,-3.1287 1.491101,-4.36562 0.526164,-1.23693 1.521608,-3.20146 2.212098,-4.36563 0.69049,-1.16417 1.921921,-2.91309 2.736513,-3.88649 0.814593,-0.9734 2.370458,-2.48529 3.457479,-3.35975 1.08702,-0.87447 2.742532,-2.01838 3.678916,-2.54204 0.936383,-0.52365 2.421023,-1.23368 3.2992,-1.57783 0.878177,-0.34416 2.404589,-0.80831 3.392027,-1.03145 0.987438,-0.22315 2.68831,-0.48485 3.779716,-0.58156 1.091407,-0.0967 3.115469,-0.0401 4.497917,0.12572 1.382448,0.16586 3.406511,0.53914 4.497917,0.82951 1.091406,0.29036 3.107456,0.96722 4.480111,1.50413 1.372655,0.53691 3.4461,1.57569 4.607655,2.3084 1.161555,0.73271 2.221775,1.51083 2.356044,1.72917 0.180443,0.29343 -0.283029,1.1734 -1.776749,3.37344 -1.98795,2.92797 -2.037489,2.97646 -3.040797,2.97646 -0.955819,0 -1.106406,-0.11666 -2.395864,-1.85604 -0.756767,-1.02082 -1.985864,-2.38959 -2.731326,-3.0417 -0.745463,-0.65211 -2.131857,-1.59181 -3.080877,-2.08821 -0.949019,-0.4964 -2.253476,-1.04314 -2.898794,-1.21498 -0.645318,-0.17184 -1.980889,-0.31243 -2.967935,-0.31243 -1.361547,0 -2.149939,0.16267 -3.266972,0.67406 -0.809789,0.37074 -2.015332,1.119 -2.678986,1.66282 -0.663654,0.54381 -1.731566,1.67093 -2.373139,2.5047 -0.641572,0.83377 -1.636348,2.38796 -2.210613,3.45376 -0.574264,1.0658 -1.466058,3.20006 -1.981762,4.74282 -0.515705,1.54275 -1.181544,4.22166 -1.479642,5.95312 -0.375356,2.1802 -0.545843,4.36835 -0.554505,7.11687 -0.0069,2.18281 0.125186,4.96965 0.293479,6.19297 0.168293,1.22331 0.590922,3.32086 0.939174,4.66121 0.348253,1.34036 0.88378,3.0779 1.190059,3.86121 0.30628,0.78331 1.026721,2.29945 1.600981,3.36921 0.57426,1.06976 1.603972,2.65764 2.28825,3.52862 0.684278,0.87097 1.825615,2.04657 2.536304,2.61243 0.710689,0.56585 1.905426,1.3284 2.65497,1.69454 0.749545,0.36614 2.072223,0.79645 2.939284,0.95625 0.876353,0.16152 2.227638,0.20922 3.042708,0.10742 0.806429,-0.10072 2.213954,-0.46454 3.127835,-0.80849 0.913881,-0.34394 2.305423,-1.0527 3.092316,-1.57501 0.786893,-0.52231 2.144359,-1.71254 3.016592,-2.64496 0.895603,-0.9574 1.925793,-2.41931 2.366821,-3.35869 0.42952,-0.91485 0.856234,-2.09082 0.948254,-2.61325 0.09202,-0.52243 0.442995,-1.20886 0.779945,-1.52541 0.578962,-0.54391 0.672244,-0.55451 1.697099,-0.19292 0.596456,0.21044 1.388412,0.58177 1.759904,0.82518 0.371492,0.24342 0.915662,0.83126 1.209267,1.30632 0.350814,0.56763 0.533826,1.32165 0.533826,2.19941 0,1.16185 -0.171352,1.59186 -1.316697,3.3043 -0.724183,1.08274 -2.125081,2.72982 -3.113108,3.66018 -0.988026,0.93036 -2.539213,2.08581 -3.447081,2.56766 -0.907869,0.48185 -2.513299,1.17029 -3.567622,1.52988 -1.054323,0.35958 -2.914813,0.82854 -4.134421,1.04213 -1.219609,0.2136 -3.600859,0.37889 -5.291667,0.36732 -1.690808,-0.0116 -3.848103,-0.18699 -4.793988,-0.38982 z m 99.044547,0.0194 c -1.0417,-0.18903 -2.52998,-0.55212 -3.30729,-0.80688 -0.77731,-0.25476 -2.24673,-0.87942 -3.26538,-1.38814 -1.01864,-0.50871 -2.55892,-1.40456 -3.42284,-1.99077 -0.86392,-0.58621 -2.4202,-1.9095 -3.4584,-2.94066 -1.0382,-1.03115 -2.44666,-2.66656 -3.1299,-3.63424 -0.68324,-0.96768 -1.78,-2.81315 -2.43723,-4.10104 -0.65723,-1.28789 -1.53528,-3.41318 -1.95121,-4.72287 -0.41594,-1.30969 -0.91763,-3.27422 -1.11488,-4.36562 -0.21591,-1.19465 -0.35482,-3.82707 -0.34904,-6.61459 0.007,-3.32045 0.14107,-5.2908 0.47439,-6.96553 0.25564,-1.28442 0.81872,-3.30848 1.25129,-4.49791 0.43258,-1.18943 1.4093,-3.32033 2.1705,-4.73534 0.76119,-1.41501 2.13834,-3.52322 3.06033,-4.6849 0.92198,-1.16169 2.48995,-2.7778 3.48436,-3.59136 0.99442,-0.81357 2.75673,-2.04939 3.91625,-2.74629 1.15952,-0.69689 3.22296,-1.6353 4.58543,-2.08534 1.36246,-0.45005 3.48924,-0.95766 4.72616,-1.12801 1.30567,-0.17982 3.19225,-0.23711 4.49792,-0.13659 1.23693,0.0952 3.00541,0.34636 3.92997,0.55808 0.92456,0.21171 2.47237,0.6967 3.43958,1.07774 0.96722,0.38103 2.70443,1.2431 3.86047,1.91569 1.31591,0.7656 3.01168,2.11333 4.5349,3.60414 1.34378,1.31519 3.04497,3.32462 3.79994,4.48847 0.75181,1.15897 1.77595,2.96916 2.27587,4.02263 0.49992,1.05348 1.20452,2.79591 1.56577,3.87206 0.36125,1.07615 0.86094,3.07596 1.11042,4.44403 0.30588,1.6773 0.45361,3.86609 0.45361,6.72072 0,2.85464 -0.14773,5.04342 -0.45361,6.72073 -0.24948,1.36807 -0.75497,3.39213 -1.12331,4.49792 -0.36833,1.10579 -1.13294,2.96302 -1.69912,4.12719 -0.56619,1.16416 -1.53255,2.89057 -2.14749,3.83646 -0.61493,0.94588 -2.26044,2.8616 -3.65668,4.25715 -1.68226,1.68142 -3.25099,2.95491 -4.65041,3.77518 -1.16148,0.68081 -3.02462,1.59049 -4.14031,2.02152 -1.1157,0.43103 -3.06606,0.96461 -4.33414,1.18575 -1.26809,0.22113 -3.27228,0.39132 -4.45376,0.37818 -1.18149,-0.0131 -3.00046,-0.17853 -4.04216,-0.36756 z m 8.19441,-4.71119 c 0.76042,-0.34813 2.12285,-1.31833 3.02762,-2.15599 0.90477,-0.83766 2.20382,-2.36354 2.88677,-3.39084 0.68295,-1.0273 1.70298,-2.93771 2.26673,-4.24534 0.56375,-1.30763 1.36416,-3.70023 1.77869,-5.31688 0.41453,-1.61665 0.90156,-4.29461 1.08229,-5.95102 0.19701,-1.80568 0.26742,-4.40145 0.17583,-6.4823 -0.084,-1.90884 -0.40429,-4.75647 -0.71171,-6.32807 -0.30741,-1.57159 -0.92429,-3.89331 -1.37083,-5.15937 -0.44654,-1.26606 -1.17177,-3.01631 -1.61162,-3.88943 -0.43985,-0.87313 -1.24643,-2.24606 -1.7924,-3.05097 -0.54597,-0.80491 -1.80215,-2.2207 -2.79152,-3.1462 -0.98936,-0.92551 -2.46113,-1.99335 -3.27059,-2.37299 -1.22608,-0.57504 -1.84824,-0.69019 -3.72712,-0.68985 -2.00943,3.7e-4 -2.44585,0.0942 -4.00232,0.86044 -1.09015,0.53668 -2.3971,1.50381 -3.4762,2.57235 -0.95109,0.94177 -2.28231,2.59966 -2.95827,3.68419 -0.67597,1.08454 -1.63225,2.96289 -2.12509,4.17412 -0.49283,1.21123 -1.19079,3.33941 -1.55101,4.72928 -0.36023,1.38986 -0.79939,3.76939 -0.97592,5.28783 -0.19959,1.71684 -0.26383,4.36304 -0.16988,6.99797 0.0959,2.68844 0.34357,5.13478 0.67771,6.69297 0.28964,1.3507 0.84798,3.43429 1.24075,4.63021 0.39277,1.19592 1.31981,3.36502 2.06008,4.82023 1.07533,2.11386 1.77683,3.08314 3.48903,4.82081 1.50371,1.52608 2.60032,2.3843 3.67567,2.87661 0.84293,0.38591 2.14494,0.77993 2.89337,0.8756 0.74843,0.0957 1.93151,0.0875 2.62907,-0.0182 0.69755,-0.10569 1.89045,-0.47701 2.65087,-0.82514 z m -231.419828,3.82503 c -0.401869,-0.44406 -0.437882,-2.87788 -0.437882,-29.59233 0,-27.8638 0.02069,-29.1272 0.483854,-29.54635 0.430338,-0.38945 1.482694,-0.43789 9.514624,-0.43789 4.966923,0 10.255829,0.13192 11.753125,0.29315 1.497296,0.16123 3.85345,0.57806 5.235897,0.92629 1.382448,0.34823 3.466042,1.09232 4.630209,1.65354 1.164167,0.56122 2.758366,1.50615 3.542666,2.09983 0.7843,0.59368 1.903166,1.65243 2.486369,2.35279 0.583203,0.70035 1.395429,1.98774 1.804946,2.86086 0.409518,0.87313 0.918739,2.26249 1.131604,3.08748 0.212865,0.82498 0.468721,2.43649 0.56857,3.58114 0.104062,1.19295 0.05806,2.87704 -0.107789,3.94595 -0.159132,1.02563 -0.49587,2.50975 -0.748306,3.29803 -0.252436,0.78828 -1.063321,2.32519 -1.801967,3.41536 -0.749916,1.10681 -2.038935,2.54676 -2.918918,3.2607 -0.866759,0.70321 -2.647488,1.79936 -3.957175,2.43589 -1.309688,0.63654 -2.946797,1.29672 -3.638021,1.46708 -0.691224,0.17035 -1.256771,0.39621 -1.256771,0.5019 0,0.10569 0.256796,0.41898 0.570658,0.6962 0.313861,0.27721 1.930093,2.20874 3.591627,4.29228 1.661533,2.08355 4.11195,5.06011 5.445372,6.61459 1.333422,1.55448 3.497424,3.9054 4.808894,5.22426 1.31147,1.31887 2.941725,2.77739 3.622788,3.24115 0.681063,0.46376 1.40445,0.8432 1.607525,0.8432 0.203076,0 0.628109,0.27557 0.944517,0.61237 0.366399,0.39001 0.575287,0.95155 0.575287,1.54649 0,0.56895 -0.189153,1.10531 -0.483854,1.37201 -0.403278,0.36496 -1.12103,0.43788 -4.310037,0.43788 -2.567696,0 -4.344862,-0.13297 -5.403125,-0.40426 -0.928806,-0.23811 -2.298229,-0.89344 -3.331858,-1.59445 -0.965203,-0.6546 -2.75225,-2.22885 -3.971215,-3.49834 -1.218966,-1.26949 -3.474835,-3.79644 -5.013044,-5.61545 -1.538208,-1.81901 -4.230507,-5.09323 -5.982887,-7.27604 -1.752379,-2.18281 -3.508156,-4.26594 -3.901726,-4.62916 -0.612031,-0.56485 -1.018955,-0.67419 -2.812043,-0.75562 l -2.096463,-0.0952 v 11.35898 c 0,11.35898 0,11.35898 -0.612365,11.93427 -0.576155,0.54127 -0.863167,0.57528 -4.853784,0.57528 -3.773,0 -4.289779,-0.0534 -4.679302,-0.48385 z m 19.381244,-27.96938 c 0.932342,-0.21977 2.395859,-0.77305 3.25226,-1.2295 0.863336,-0.46016 2.189496,-1.513 2.976485,-2.36304 0.780666,-0.84321 1.736869,-2.2042 2.124896,-3.02442 0.388027,-0.82023 0.887501,-2.34349 1.109941,-3.38504 0.285448,-1.33658 0.361203,-2.67215 0.257488,-4.53956 -0.08082,-1.45521 -0.34241,-3.30068 -0.581308,-4.10104 -0.238897,-0.80037 -0.795954,-2.13827 -1.237903,-2.97312 -0.441949,-0.83486 -1.386895,-2.06357 -2.09988,-2.73049 -0.712985,-0.66691 -1.917613,-1.49565 -2.67695,-1.84164 -0.759337,-0.34598 -2.154519,-0.75347 -3.100405,-0.90553 -0.945885,-0.15206 -3.416432,-0.27737 -5.490104,-0.27847 l -3.770313,-0.002 v 13.89062 13.89063 l 3.770313,-0.004 c 2.424855,-0.003 4.375243,-0.1465 5.46548,-0.40349 z m 29.317679,27.68404 c -0.454372,-0.7692 -0.454372,-0.7692 10.3294863,-29.96407 l 10.783858,-29.19487 5.1577387,-0.0715 5.157739,-0.0715 10.678288,29.29532 c 10.284795,28.21579 10.663224,29.32016 10.269506,29.96941 -0.408782,0.67408 -0.408782,0.67408 -5.822784,0.74551 l -5.414002,0.0714 -3.342022,-9.99331 c -1.838112,-5.49632 -3.443828,-10.15674 -3.568258,-10.35649 -0.150087,-0.24094 -1.060277,-0.42665 -2.704108,-0.55176 -1.362829,-0.10371 -3.755589,-0.0848 -5.317245,0.042 -1.561655,0.12683 -3.7643117,0.46714 -4.8947907,0.75625 -1.13048,0.28911 -2.816639,0.88185 -3.747021,1.3172 -0.930382,0.43536 -2.43786302,1.32408 -3.34995702,1.97494 -0.91209368,0.65085 -2.20424658,1.80741 -2.87145008,2.57012 -0.6672034,0.76272 -1.6139092,2.16323 -2.1037907,3.11225 -0.4898814,0.94901 -1.6511948,3.83716 -2.5806963,6.4181 l -1.6900028,4.69262 -2.2580584,0.004 c -2.213983,0.004 -2.266927,-0.0113 -2.71243,-0.76546 z M -0.00546472,181.2256 c 1.09140602,-0.53719 2.87734402,-1.21751 3.96875002,-1.51183 1.091406,-0.29431 2.993283,-0.65847 4.226392,-0.80923 1.23311,-0.15076 3.3762347,-0.26701 4.7624997,-0.25834 1.386266,0.009 3.091865,0.10975 3.79022,0.22461 0.888209,0.14608 1.239518,0.12147 1.169167,-0.0819 -0.05531,-0.15991 -2.174508,-6.45125 -4.709321,-13.98076 -2.534812,-7.5295 -4.6740697,-13.69099 -4.7539057,-13.69219 -0.07984,-0.001 -2.507556,6.87369 -5.394933,15.27751 -2.88737702,8.40383 -5.3115761,15.44477 -5.387109,15.64652 -0.075533,0.20176 -0.029063,0.32082 0.1032662,0.26459 0.1323291,-0.0562 1.1335668,-0.54177 2.22497378,-1.07896 z M 92.772007,203.54658 c -0.40185,-0.44403 -0.43789,-2.86833 -0.43789,-29.45492 0,-28.97107 0,-28.97107 0.61237,-29.54636 0.57439,-0.53961 0.86684,-0.57529 4.71638,-0.57529 3.947783,0 4.125913,0.0233 4.679303,0.61237 0.5741,0.6111 0.57529,0.63852 0.57529,13.26025 v 12.64788 l 13.45958,-13.26025 13.45958,-13.26025 h 1.85795 c 1.85796,0 1.85796,0 2.26277,0.99219 0.40482,0.99219 0.40482,0.99219 -2.22927,3.50573 -1.44875,1.38245 -7.67697,7.39511 -13.84049,13.36146 l -11.2064,10.84792 3.07908,0.15246 c 1.69349,0.0838 3.61185,0.304 4.26302,0.48923 0.65117,0.18522 1.88663,0.69148 2.74545,1.12502 0.85883,0.43353 2.14979,1.33852 2.86882,2.01108 0.71902,0.67256 2.68899,3.25286 4.37769,5.73398 1.6887,2.48113 4.02006,5.82083 5.1808,7.42156 1.16073,1.60073 2.80045,3.75611 3.64382,4.78973 0.84337,1.03362 2.24875,2.58803 3.12308,3.45426 0.87432,0.86622 1.92278,1.74151 2.32991,1.94509 0.40713,0.20358 1.00812,0.60469 1.33555,0.89134 0.41458,0.36297 0.59531,0.81604 0.59531,1.4924 0,0.60487 -0.18251,1.13638 -0.48386,1.40909 -0.40364,0.3653 -1.11635,0.4372 -4.29947,0.43375 -2.23284,-0.002 -4.43546,-0.15002 -5.30985,-0.35583 -0.82182,-0.19344 -2.05705,-0.68154 -2.74495,-1.08468 -0.6879,-0.40313 -1.73001,-1.16574 -2.31581,-1.69469 -0.58579,-0.52894 -2.39853,-2.74765 -4.0283,-4.93046 -1.62978,-2.18281 -4.7692,-6.58812 -6.97649,-9.78958 -2.20729,-3.20146 -4.39808,-6.35662 -4.86841,-7.01146 -0.4972,-0.69225 -1.34931,-1.43981 -2.0357,-1.78594 -0.81864,-0.41282 -1.65,-0.59531 -2.71197,-0.59531 h -1.53144 v 13.18816 c 0,12.44046 -0.0274,13.21298 -0.48386,13.62604 -0.40912,0.37025 -1.15881,0.43788 -4.853783,0.43788 -3.8975,0 -4.41727,-0.0523 -4.80781,-0.48385 z m -214.832287,-8.44717 c -0.0613,-0.1084 -0.55875,-1.56632 -1.10542,-3.23981 -0.54668,-1.67349 -1.35864,-3.69755 -1.80437,-4.49792 -0.44573,-0.80036 -1.87872,-3.24114 -3.18442,-5.42396 -1.3057,-2.18281 -3.47559,-5.76017 -4.82198,-7.9497 l -2.44798,-3.98095 -0.30522,-5.00224 c -0.16787,-2.75124 -0.40025,-5.17205 -0.51639,-5.37959 -0.12877,-0.23009 -0.27555,-0.27319 -0.37614,-0.11043 -0.0907,0.14681 -0.28478,1.62061 -0.43123,3.27513 -0.14644,1.65451 -0.26989,3.90117 -0.27433,4.99258 -0.006,1.41021 -0.16231,2.32435 -0.54111,3.15936 -0.29317,0.64625 -1.92683,3.38469 -3.63035,6.08542 -1.70353,2.70073 -3.96238,6.21929 -5.01968,7.81902 -1.63311,2.47095 -2.08126,3.41262 -2.97842,6.25827 -0.58083,1.84232 -1.05606,3.48025 -1.05606,3.63984 0,0.15959 -0.0784,0.29017 -0.17427,0.29017 -0.0958,0 -1.50182,-0.88783 -3.1244,-1.97295 -1.62258,-1.08512 -6.0983,-3.93263 -9.94605,-6.32779 -3.84775,-2.39516 -7.82934,-4.87643 -8.84799,-5.51394 -1.80056,-1.12685 -1.90498,-1.253 -3.7536,-4.53484 -1.20213,-2.13413 -1.78602,-3.41779 -1.5875,-3.49005 0.17271,-0.0629 4.00495,-1.37607 8.5161,-2.91824 4.51115,-1.54217 9.73815,-3.38911 11.61556,-4.10432 1.87741,-0.7152 3.61538,-1.30037 3.86215,-1.30037 0.24676,0 1.98492,1.14245 3.86256,2.53877 1.87764,1.39633 3.4995,2.61898 3.60413,2.717 0.10462,0.098 0.0134,1.66425 -0.20281,3.4805 -0.21618,1.81625 -0.56271,4.55243 -0.77008,6.0804 -0.20737,1.52796 -0.45699,3.43296 -0.55471,4.23333 -0.0977,0.80036 -0.11817,1.39568 -0.0454,1.32292 0.0727,-0.0728 0.63001,-1.96502 1.23841,-4.20502 0.60839,-2.24 1.35296,-4.74032 1.65461,-5.55625 0.30164,-0.81594 1.73414,-4.04337 3.18333,-7.17207 1.44919,-3.1287 3.0306,-6.8876 3.51424,-8.35313 0.48364,-1.46552 1.07363,-3.6052 1.3111,-4.75483 0.23746,-1.14964 0.47348,-2.13198 0.52448,-2.18298 0.051,-0.051 0.17753,0.30274 0.28117,0.78609 0.10365,0.48334 0.59125,2.27221 1.08356,3.97526 0.49232,1.70305 1.44394,4.44149 2.11473,6.08542 0.67079,1.64393 1.6982,3.88193 2.28313,4.97334 0.58494,1.09141 1.2702,2.34156 1.5228,2.77812 0.2526,0.43657 0.76665,1.62719 1.14233,2.64584 0.37567,1.01864 0.9334,2.74505 1.23939,3.83646 0.30598,1.0914 0.90993,3.05593 1.34209,4.36562 0.43217,1.30969 0.71579,1.96453 0.63029,1.45521 -0.0855,-0.50932 -0.26057,-1.64042 -0.38901,-2.51354 -0.12844,-0.87313 -0.29503,-2.42094 -0.37019,-3.43959 -0.0752,-1.01864 -0.3129,-2.80458 -0.5283,-3.96875 -0.21539,-1.16416 -0.4247,-2.64437 -0.46513,-3.28934 -0.0735,-1.17267 -0.0735,-1.17267 2.43354,-2.98046 1.37889,-0.99429 2.93571,-2.10753 3.45962,-2.47387 0.83006,-0.58042 1.05122,-0.62752 1.71979,-0.36631 0.42198,0.16487 2.43411,0.8932 4.4714,1.61852 2.03729,0.72531 7.15698,2.49061 11.37708,3.92289 4.220105,1.43228 8.006779,2.73135 8.414832,2.88682 0.741914,0.28266 0.741914,0.28266 0.09942,1.14367 -0.353371,0.47355 -1.207454,1.84983 -1.897963,3.0584 -0.690509,1.20857 -1.509156,2.35476 -1.819214,2.5471 -0.310059,0.19233 -1.575775,1.00093 -2.812705,1.79687 -1.23692,0.79595 -4.68974,3.05431 -7.67291,5.01857 -2.98318,1.96427 -6.49552,4.26327 -7.80521,5.10888 -1.30968,0.84562 -2.99967,1.93508 -3.75552,2.42102 -0.75585,0.48595 -1.42443,0.79484 -1.48575,0.68643 z m -56.53894,-16.24392 c -1.38244,-0.43184 -3.94229,-1.18377 -5.68854,-1.67093 -1.74625,-0.48717 -2.9964,-0.9562 -2.77812,-1.04229 0.21828,-0.0861 2.0541,-0.69759 4.0796,-1.35888 2.0255,-0.66129 3.8412,-1.14153 4.03489,-1.06721 0.1937,0.0743 0.35217,0.24268 0.35217,0.37411 0,0.13144 0.65485,1.39528 1.45521,2.80855 0.80037,1.41327 1.45521,2.61915 1.45521,2.67975 0,0.0606 -0.0893,0.0994 -0.19844,0.0861 -0.10914,-0.0132 -1.32953,-0.37738 -2.71198,-0.80923 z m 81.756252,0.58615 c 0,-0.0979 0.723975,-1.40259 1.608833,-2.89922 1.516741,-2.56538 1.649262,-2.71135 2.315105,-2.55003 0.388449,0.0941 2.07549,0.59742 3.748979,1.11846 1.67349,0.52104 3.130038,1.02407 3.236773,1.11784 0.106736,0.0938 -2.30428,0.89511 -5.357813,1.78076 -3.053532,0.88564 -5.551877,1.53012 -5.551877,1.43219 z m -87.844492,-16.55392 c 0.35202,-0.58208 1.53847,-2.51455 2.63654,-4.29438 1.09807,-1.77983 2.97876,-4.82951 4.17931,-6.77706 1.20055,-1.94755 2.18281,-3.67231 2.18281,-3.83279 0,-0.16049 -0.6228,-1.278 -1.38401,-2.48336 -0.76121,-1.20537 -2.66621,-4.12209 -4.23334,-6.48161 -2.84932,-4.29004 -2.84932,-4.29004 -2.84932,-6.37773 0,-1.14822 0.12465,-3.62265 0.27699,-5.49871 0.15234,-1.87607 0.36576,-3.49981 0.47426,-3.60831 0.1085,-0.1085 1.14471,0.48073 2.3027,1.3094 1.15799,0.82867 4.36443,3.35785 7.12543,5.62041 2.761,2.26255 5.68848,4.64951 6.50551,5.30435 0.81703,0.65484 2.58083,2.07028 3.91955,3.14542 1.33872,1.07513 2.39984,2.02763 2.35803,2.11666 -0.0418,0.089 -2.28635,2.305 -4.98788,4.92438 -2.70154,2.61938 -6.6306,6.36029 -8.73125,8.31314 -2.10066,1.95286 -5.30348,4.92942 -7.11737,6.61459 -2.6234,2.43721 -3.16708,2.84746 -2.65796,2.0056 z m 94.709416,-0.5589 c -0.501489,-0.52567 -3.650236,-3.5509 -6.997215,-6.72273 -3.346981,-3.17183 -8.288071,-7.92724 -10.980211,-10.56758 -3.25171,-3.18915 -4.77202,-4.85165 -4.52905,-4.95265 0.20115,-0.0836 1.27271,-0.88643 2.38124,-1.78403 1.10854,-0.8976 3.56333,-2.88471 5.4551,-4.4158 1.89178,-1.5311 4.63021,-3.68265 6.085421,-4.78124 1.455208,-1.09859 3.966096,-2.90162 5.579751,-4.00674 l 2.933919,-2.00931 0.367086,5.08282 c 0.201898,2.79556 0.349762,5.45332 0.328586,5.90614 -0.02736,0.58515 -1.301206,2.72276 -4.403453,7.38934 l -4.364952,6.56603 0.95108,1.4742 c 0.523094,0.81081 2.197689,3.5578 3.721321,6.10441 1.523632,2.54662 3.223265,5.31482 3.776961,6.15157 0.553697,0.83674 0.916607,1.52135 0.806468,1.52135 -0.11014,0 -0.610563,-0.4301 -1.112052,-0.95578 z m -47.193706,-13.90824 c -0.0724,-0.33776 -0.26646,-1.32848 -0.43124,-2.20161 -0.16479,-0.87312 -0.82509,-3.20685 -1.46734,-5.18606 -0.64225,-1.97922 -1.37532,-3.77966 -1.62904,-4.00099 -0.25372,-0.22133 -1.47333,-0.94185 -2.71026,-1.60114 -1.23693,-0.65929 -3.20146,-1.68633 -4.36563,-2.28231 l -2.11666,-1.08359 13.36146,1.9e-4 13.36145,1.8e-4 -4.10104,2.2651 c -2.25557,1.2458 -4.35599,2.52538 -4.6676,2.84352 -0.31161,0.31814 -0.92551,1.59047 -1.36422,2.82739 -0.43871,1.23693 -1.31485,3.72796 -1.94698,5.53562 -0.63213,1.80766 -1.29376,3.33417 -1.47029,3.39223 -0.17654,0.0581 -0.38021,-0.17077 -0.45261,-0.50853 z m -23.31596,-11.35462 c -0.57523,-0.59577 -1.76026,-1.59526 -2.63338,-2.22109 -0.87313,-0.62582 -4.14734,-2.71519 -7.27604,-4.64305 -3.1287,-1.92785 -6.99513,-4.26211 -8.59207,-5.18725 -2.66624,-1.54459 -2.82795,-1.68206 -1.97865,-1.68206 0.50868,0 1.69621,0.22484 2.63894,0.49965 0.94274,0.2748 3.32141,1.09378 5.28594,1.81996 1.96454,0.72617 5.00063,1.88219 6.74688,2.56893 1.74625,0.68674 3.30688,1.3858 3.46806,1.55348 0.16118,0.16767 0.74257,1.55502 1.29198,3.08298 0.54941,1.52797 1.28274,3.34368 1.62963,4.0349 0.34689,0.69122 0.59333,1.25677 0.54765,1.25677 -0.0457,0 -0.5537,-0.48745 -1.12894,-1.08322 z m 46.81429,-1.89334 c 0.62065,-1.49159 1.28706,-3.28987 1.4809,-3.99619 0.31714,-1.15558 0.4741,-1.33692 1.56714,-1.81059 0.66809,-0.28951 3.32553,-1.34568 5.90544,-2.34704 2.5799,-1.00136 5.794589,-2.17787 7.143748,-2.61445 1.349159,-0.43658 3.137625,-0.87274 3.97437,-0.96924 0.836745,-0.0965 1.521354,-0.10869 1.521354,-0.0271 0,0.0816 -1.101328,0.73618 -2.447395,1.45462 -1.346068,0.71845 -3.423792,1.85455 -4.617164,2.52468 -1.193373,0.67013 -4.665453,2.76996 -7.715733,4.66627 -3.72167,2.31371 -5.89099,3.83981 -6.59484,4.63943 -0.57688,0.65537 -1.11579,1.19158 -1.19758,1.19158 -0.0818,0 0.35911,-1.22039 0.97976,-2.71198 z"
       id="path1" /></g></svg>
