<?xml version="1.0" encoding="UTF-8" standalone="no"?>
<!-- Created with Inkscape (http://www.inkscape.org/) -->

<svg
   width="113.24167mm"
   height="91.057831mm"
   viewBox="0 0 113.24167 91.057831"
   version="1.1"
   id="svg1"
   xml:space="preserve"
   inkscape:version="1.4.3 (0d15f75, 2025-12-25)"
   sodipodi:docname="favicon.svg"
   xmlns:inkscape="http://www.inkscape.org/namespaces/inkscape"
   xmlns:sodipodi="http://sodipodi.sourceforge.net/DTD/sodipodi-0.dtd"
   xmlns:xlink="http://www.w3.org/1999/xlink"
   xmlns="http://www.w3.org/2000/svg"
   xmlns:svg="http://www.w3.org/2000/svg"><sodipodi:namedview
     id="namedview1"
     pagecolor="#505050"
     bordercolor="#eeeeee"
     borderopacity="1"
     inkscape:showpageshadow="0"
     inkscape:pageopacity="0"
     inkscape:pagecheckerboard="0"
     inkscape:deskcolor="#505050"
     inkscape:document-units="mm"
     inkscape:zoom="1.9477379"
     inkscape:cx="202.79936"
     inkscape:cy="166.60352"
     inkscape:window-width="1920"
     inkscape:window-height="991"
     inkscape:window-x="-9"
     inkscape:window-y="-9"
     inkscape:window-maximized="1"
     inkscape:current-layer="g1" /><defs
     id="defs1"><linearGradient
       id="linearGradient409"
       inkscape:collect="always"><stop
         style="stop-color:#ff00ff;stop-opacity:1"
         offset="0"
         id="stop408" /><stop
         style="stop-color:#00ffff;stop-opacity:1"
         offset="1"
         id="stop409" /></linearGradient><linearGradient
       id="linearGradient407"
       inkscape:collect="always"><stop
         style="stop-color:#ff00ff;stop-opacity:1"
         offset="0"
         id="stop406" /><stop
         style="stop-color:#00ffff;stop-opacity:1"
         offset="1"
         id="stop407" /></linearGradient><linearGradient
       id="linearGradient405"
       inkscape:collect="always"><stop
         style="stop-color:#ff00ff;stop-opacity:1"
         offset="0"
         id="stop404" /><stop
         style="stop-color:#00ffff;stop-opacity:1"
         offset="1"
         id="stop405" /></linearGradient><linearGradient
       id="linearGradient403"
       inkscape:collect="always"><stop
         style="stop-color:#ff00ff;stop-opacity:1"
         offset="0"
         id="stop402" /><stop
         style="stop-color:#00ffff;stop-opacity:1"
         offset="1"
         id="stop403" /></linearGradient><linearGradient
       id="linearGradient401"
       inkscape:collect="always"><stop
         style="stop-color:#ff00ff;stop-opacity:1"
         offset="0"
         id="stop400" /><stop
         style="stop-color:#00ffff;stop-opacity:1"
         offset="1"
         id="stop401" /></linearGradient><linearGradient
       id="linearGradient399"
       inkscape:collect="always"><stop
         style="stop-color:#ff00ff;stop-opacity:1"
         offset="0"
         id="stop398" /><stop
         style="stop-color:#00ffff;stop-opacity:1"
         offset="1"
         id="stop399" /></linearGradient><linearGradient
       id="linearGradient397"
       inkscape:collect="always"><stop
         style="stop-color:#ff00ff;stop-opacity:1"
         offset="0"
         id="stop396" /><stop
         style="stop-color:#00ffff;stop-opacity:1"
         offset="1"
         id="stop397" /></linearGradient><linearGradient
       id="linearGradient395"
       inkscape:collect="always"><stop
         style="stop-color:#ff00ff;stop-opacity:1"
         offset="0"
         id="stop394" /><stop
         style="stop-color:#00ffff;stop-opacity:1"
         offset="1"
         id="stop395" /></linearGradient><linearGradient
       id="linearGradient393"
       inkscape:collect="always"><stop
         style="stop-color:#ff00ff;stop-opacity:1"
         offset="0"
         id="stop392" /><stop
         style="stop-color:#00ffff;stop-opacity:1"
         offset="1"
         id="stop393" /></linearGradient><linearGradient
       id="linearGradient391"
       inkscape:collect="always"><stop
         style="stop-color:#ff00ff;stop-opacity:1"
         offset="0"
         id="stop390" /><stop
         style="stop-color:#00ffff;stop-opacity:1"
         offset="1"
         id="stop391" /></linearGradient><linearGradient
       id="linearGradient389"
       inkscape:collect="always"><stop
         style="stop-color:#ff00ff;stop-opacity:1"
         offset="0"
         id="stop388" /><stop
         style="stop-color:#00ffff;stop-opacity:1"
         offset="1"
         id="stop389" /></linearGradient><linearGradient
       id="linearGradient387"
       inkscape:collect="always"><stop
         style="stop-color:#ff00ff;stop-opacity:1"
         offset="0"
         id="stop386" /><stop
         style="stop-color:#00ffff;stop-opacity:1"
         offset="1"
         id="stop387" /></linearGradient><linearGradient
       id="linearGradient385"
       inkscape:collect="always"><stop
         style="stop-color:#ff00ff;stop-opacity:1"
         offset="0"
         id="stop384" /><stop
         style="stop-color:#00ffff;stop-opacity:1"
         offset="1"
         id="stop385" /></linearGradient><linearGradient
       id="linearGradient383"
       inkscape:collect="always"><stop
         style="stop-color:#ff00ff;stop-opacity:1"
         offset="0"
         id="stop382" /><stop
         style="stop-color:#00ffff;stop-opacity:1"
         offset="1"
         id="stop383" /></linearGradient><linearGradient
       id="linearGradient381"
       inkscape:collect="always"><stop
         style="stop-color:#ff00ff;stop-opacity:1"
         offset="0"
         id="stop380" /><stop
         style="stop-color:#00ffff;stop-opacity:1"
         offset="1"
         id="stop381" /></linearGradient><linearGradient
       id="linearGradient379"
       inkscape:collect="always"><stop
         style="stop-color:#ff00ff;stop-opacity:1"
         offset="0"
         id="stop378" /><stop
         style="stop-color:#00ffff;stop-opacity:1"
         offset="1"
         id="stop379" /></linearGradient><linearGradient
       id="linearGradient377"
       inkscape:collect="always"><stop
         style="stop-color:#ff00ff;stop-opacity:1"
         offset="0"
         id="stop376" /><stop
         style="stop-color:#00ffff;stop-opacity:1"
         offset="1"
         id="stop377" /></linearGradient><linearGradient
       id="linearGradient375"
       inkscape:collect="always"><stop
         style="stop-color:#ff00ff;stop-opacity:1"
         offset="0"
         id="stop374" /><stop
         style="stop-color:#00ffff;stop-opacity:1"
         offset="1"
         id="stop375" /></linearGradient><linearGradient
       id="linearGradient373"
       inkscape:collect="always"><stop
         style="stop-color:#ff00ff;stop-opacity:1"
         offset="0"
         id="stop372" /><stop
         style="stop-color:#00ffff;stop-opacity:1"
         offset="1"
         id="stop373" /></linearGradient><linearGradient
       id="linearGradient371"
       inkscape:collect="always"><stop
         style="stop-color:#ff00ff;stop-opacity:1"
         offset="0"
         id="stop370" /><stop
         style="stop-color:#00ffff;stop-opacity:1"
         offset="1"
         id="stop371" /></linearGradient><linearGradient
       id="linearGradient369"
       inkscape:collect="always"><stop
         style="stop-color:#ff00ff;stop-opacity:1"
         offset="0"
         id="stop368" /><stop
         style="stop-color:#00ffff;stop-opacity:1"
         offset="1"
         id="stop369" /></linearGradient><linearGradient
       id="linearGradient367"
       inkscape:collect="always"><stop
         style="stop-color:#ff00ff;stop-opacity:1"
         offset="0"
         id="stop366" /><stop
         style="stop-color:#00ffff;stop-opacity:1"
         offset="1"
         id="stop367" /></linearGradient><linearGradient
       id="linearGradient365"
       inkscape:collect="always"><stop
         style="stop-color:#ff00ff;stop-opacity:1"
         offset="0"
         id="stop364" /><stop
         style="stop-color:#00ffff;stop-opacity:1"
         offset="1"
         id="stop365" /></linearGradient><linearGradient
       id="linearGradient363"
       inkscape:collect="always"><stop
         style="stop-color:#ff00ff;stop-opacity:1"
         offset="0"
         id="stop362" /><stop
         style="stop-color:#00ffff;stop-opacity:1"
         offset="1"
         id="stop363" /></linearGradient><linearGradient
       id="linearGradient361"
       inkscape:collect="always"><stop
         style="stop-color:#ff00ff;stop-opacity:1"
         offset="0"
         id="stop360" /><stop
         style="stop-color:#00ffff;stop-opacity:1"
         offset="1"
         id="stop361" /></linearGradient><linearGradient
       id="linearGradient359"
       inkscape:collect="always"><stop
         style="stop-color:#ff00ff;stop-opacity:1"
         offset="0"
         id="stop358" /><stop
         style="stop-color:#00ffff;stop-opacity:1"
         offset="1"
         id="stop359" /></linearGradient><linearGradient
       id="linearGradient357"
       inkscape:collect="always"><stop
         style="stop-color:#ff00ff;stop-opacity:1"
         offset="0"
         id="stop356" /><stop
         style="stop-color:#00ffff;stop-opacity:1"
         offset="1"
         id="stop357" /></linearGradient><linearGradient
       id="linearGradient355"
       inkscape:collect="always"><stop
         style="stop-color:#ff00ff;stop-opacity:1"
         offset="0"
         id="stop354" /><stop
         style="stop-color:#00ffff;stop-opacity:1"
         offset="1"
         id="stop355" /></linearGradient><linearGradient
       id="linearGradient351"
       inkscape:collect="always"><stop
         style="stop-color:#ff00ff;stop-opacity:1"
         offset="0"
         id="stop350" /><stop
         style="stop-color:#00ffff;stop-opacity:1"
         offset="1"
         id="stop351" /></linearGradient><linearGradient
       id="linearGradient349"
       inkscape:collect="always"><stop
         style="stop-color:#ff00ff;stop-opacity:1"
         offset="0"
         id="stop348" /><stop
         style="stop-color:#00ffff;stop-opacity:1"
         offset="1"
         id="stop349" /></linearGradient><linearGradient
       id="linearGradient347"
       inkscape:collect="always"><stop
         style="stop-color:#ff00ff;stop-opacity:1"
         offset="0"
         id="stop346" /><stop
         style="stop-color:#00ffff;stop-opacity:1"
         offset="1"
         id="stop347" /></linearGradient><linearGradient
       id="linearGradient345"
       inkscape:collect="always"><stop
         style="stop-color:#ff00ff;stop-opacity:1"
         offset="0"
         id="stop344" /><stop
         style="stop-color:#00ffff;stop-opacity:1"
         offset="1"
         id="stop345" /></linearGradient><linearGradient
       id="linearGradient343"
       inkscape:collect="always"><stop
         style="stop-color:#ff00ff;stop-opacity:1"
         offset="0"
         id="stop342" /><stop
         style="stop-color:#00ffff;stop-opacity:1"
         offset="1"
         id="stop343" /></linearGradient><linearGradient
       id="linearGradient341"
       inkscape:collect="always"><stop
         style="stop-color:#ff00ff;stop-opacity:1"
         offset="0"
         id="stop340" /><stop
         style="stop-color:#00ffff;stop-opacity:1"
         offset="1"
         id="stop341" /></linearGradient><linearGradient
       id="linearGradient339"
       inkscape:collect="always"><stop
         style="stop-color:#ff00ff;stop-opacity:1"
         offset="0"
         id="stop338" /><stop
         style="stop-color:#00ffff;stop-opacity:1"
         offset="1"
         id="stop339" /></linearGradient><linearGradient
       id="linearGradient337"
       inkscape:collect="always"><stop
         style="stop-color:#ff00ff;stop-opacity:1"
         offset="0"
         id="stop336" /><stop
         style="stop-color:#00ffff;stop-opacity:1"
         offset="1"
         id="stop337" /></linearGradient><linearGradient
       id="linearGradient335"
       inkscape:collect="always"><stop
         style="stop-color:#ff00ff;stop-opacity:1"
         offset="0"
         id="stop334" /><stop
         style="stop-color:#00ffff;stop-opacity:1"
         offset="1"
         id="stop335" /></linearGradient><linearGradient
       id="linearGradient333"
       inkscape:collect="always"><stop
         style="stop-color:#ff00ff;stop-opacity:1"
         offset="0"
         id="stop332" /><stop
         style="stop-color:#00ffff;stop-opacity:1"
         offset="1"
         id="stop333" /></linearGradient><linearGradient
       id="linearGradient331"
       inkscape:collect="always"><stop
         style="stop-color:#ff00ff;stop-opacity:1"
         offset="0"
         id="stop330" /><stop
         style="stop-color:#00ffff;stop-opacity:1"
         offset="1"
         id="stop331" /></linearGradient><linearGradient
       id="linearGradient329"
       inkscape:collect="always"><stop
         style="stop-color:#ff00ff;stop-opacity:1"
         offset="0"
         id="stop328" /><stop
         style="stop-color:#00ffff;stop-opacity:1"
         offset="1"
         id="stop329" /></linearGradient><linearGradient
       id="linearGradient327"
       inkscape:collect="always"><stop
         style="stop-color:#ff00ff;stop-opacity:1"
         offset="0"
         id="stop326" /><stop
         style="stop-color:#00ffff;stop-opacity:1"
         offset="1"
         id="stop327" /></linearGradient><linearGradient
       id="linearGradient313"
       inkscape:collect="always"><stop
         style="stop-color:#ff00ff;stop-opacity:1"
         offset="0"
         id="stop312" /><stop
         style="stop-color:#00ffff;stop-opacity:1"
         offset="1"
         id="stop313" /></linearGradient><linearGradient
       id="linearGradient308"
       inkscape:collect="always"><stop
         style="stop-color:#ff00ff;stop-opacity:1"
         offset="0"
         id="stop307" /><stop
         style="stop-color:#00ffff;stop-opacity:1"
         offset="1"
         id="stop308" /></linearGradient><linearGradient
       inkscape:collect="always"
       xlink:href="#linearGradient308"
       id="linearGradient257"
       x1="45.343067"
       y1="202.75066"
       x2="-96.048912"
       y2="52.137466"
       gradientUnits="userSpaceOnUse" /><linearGradient
       inkscape:collect="always"
       xlink:href="#linearGradient409"
       id="linearGradient258"
       x1="45.343067"
       y1="202.75066"
       x2="-96.048912"
       y2="52.137466"
       gradientUnits="userSpaceOnUse" /><linearGradient
       inkscape:collect="always"
       xlink:href="#linearGradient407"
       id="linearGradient259"
       x1="45.343067"
       y1="202.75066"
       x2="-96.048912"
       y2="52.137466"
       gradientUnits="userSpaceOnUse" /><linearGradient
       inkscape:collect="always"
       xlink:href="#linearGradient405"
       id="linearGradient260"
       x1="45.343067"
       y1="202.75066"
       x2="-96.048912"
       y2="52.137466"
       gradientUnits="userSpaceOnUse" /><linearGradient
       inkscape:collect="always"
       xlink:href="#linearGradient403"
       id="linearGradient261"
       x1="45.343067"
       y1="202.75066"
       x2="-96.048912"
       y2="52.137466"
       gradientUnits="userSpaceOnUse" /><linearGradient
       inkscape:collect="always"
       xlink:href="#linearGradient401"
       id="linearGradient262"
       x1="45.343067"
       y1="202.75066"
       x2="-96.048912"
       y2="52.137466"
       gradientUnits="userSpaceOnUse" /><linearGradient
       inkscape:collect="always"
       xlink:href="#linearGradient399"
       id="linearGradient263"
       x1="45.343067"
       y1="202.75066"
       x2="-96.048912"
       y2="52.137466"
       gradientUnits="userSpaceOnUse" /><linearGradient
       inkscape:collect="always"
       xlink:href="#linearGradient397"
       id="linearGradient264"
       x1="45.343067"
       y1="202.75066"
       x2="-96.048912"
       y2="52.137466"
       gradientUnits="userSpaceOnUse" /><linearGradient
       inkscape:collect="always"
       xlink:href="#linearGradient395"
       id="linearGradient265"
       x1="45.343067"
       y1="202.75066"
       x2="-96.048912"
       y2="52.137466"
       gradientUnits="userSpaceOnUse" /><linearGradient
       inkscape:collect="always"
       xlink:href="#linearGradient393"
       id="linearGradient266"
       x1="45.343067"
       y1="202.75066"
       x2="-96.048912"
       y2="52.137466"
       gradientUnits="userSpaceOnUse" /><linearGradient
       inkscape:collect="always"
       xlink:href="#linearGradient391"
       id="linearGradient267"
       x1="45.343067"
       y1="202.75066"
       x2="-96.048912"
       y2="52.137466"
       gradientUnits="userSpaceOnUse" /><linearGradient
       inkscape:collect="always"
       xlink:href="#linearGradient389"
       id="linearGradient268"
       x1="45.343067"
       y1="202.75066"
       x2="-96.048912"
       y2="52.137466"
       gradientUnits="userSpaceOnUse" /><linearGradient
       inkscape:collect="always"
       xlink:href="#linearGradient387"
       id="linearGradient269"
       x1="45.343067"
       y1="202.75066"
       x2="-96.048912"
       y2="52.137466"
       gradientUnits="userSpaceOnUse" /><linearGradient
       inkscape:collect="always"
       xlink:href="#linearGradient385"
       id="linearGradient270"
       x1="45.343067"
       y1="202.75066"
       x2="-96.048912"
       y2="52.137466"
       gradientUnits="userSpaceOnUse" /><linearGradient
       inkscape:collect="always"
       xlink:href="#linearGradient383"
       id="linearGradient271"
       x1="45.343067"
       y1="202.75066"
       x2="-96.048912"
       y2="52.137466"
       gradientUnits="userSpaceOnUse" /><linearGradient
       inkscape:collect="always"
       xlink:href="#linearGradient381"
       id="linearGradient272"
       x1="45.343067"
       y1="202.75066"
       x2="-96.048912"
       y2="52.137466"
       gradientUnits="userSpaceOnUse" /><linearGradient
       inkscape:collect="always"
       xlink:href="#linearGradient379"
       id="linearGradient273"
       x1="45.343067"
       y1="202.75066"
       x2="-96.048912"
       y2="52.137466"
       gradientUnits="userSpaceOnUse" /><linearGradient
       inkscape:collect="always"
       xlink:href="#linearGradient377"
       id="linearGradient274"
       x1="45.343067"
       y1="202.75066"
       x2="-96.048912"
       y2="52.137466"
       gradientUnits="userSpaceOnUse" /><linearGradient
       inkscape:collect="always"
       xlink:href="#linearGradient375"
       id="linearGradient275"
       x1="45.343067"
       y1="202.75066"
       x2="-96.048912"
       y2="52.137466"
       gradientUnits="userSpaceOnUse" /><linearGradient
       inkscape:collect="always"
       xlink:href="#linearGradient373"
       id="linearGradient276"
       x1="45.343067"
       y1="202.75066"
       x2="-96.048912"
       y2="52.137466"
       gradientUnits="userSpaceOnUse" /><linearGradient
       inkscape:collect="always"
       xlink:href="#linearGradient371"
       id="linearGradient277"
       x1="45.343067"
       y1="202.75066"
       x2="-96.048912"
       y2="52.137466"
       gradientUnits="userSpaceOnUse" /><linearGradient
       inkscape:collect="always"
       xlink:href="#linearGradient369"
       id="linearGradient278"
       x1="45.343067"
       y1="202.75066"
       x2="-96.048912"
       y2="52.137466"
       gradientUnits="userSpaceOnUse" /><linearGradient
       inkscape:collect="always"
       xlink:href="#linearGradient367"
       id="linearGradient279"
       x1="45.343067"
       y1="202.75066"
       x2="-96.048912"
       y2="52.137466"
       gradientUnits="userSpaceOnUse" /><linearGradient
       inkscape:collect="always"
       xlink:href="#linearGradient365"
       id="linearGradient280"
       x1="45.343067"
       y1="202.75066"
       x2="-96.048912"
       y2="52.137466"
       gradientUnits="userSpaceOnUse" /><linearGradient
       inkscape:collect="always"
       xlink:href="#linearGradient363"
       id="linearGradient281"
       x1="45.343067"
       y1="202.75066"
       x2="-96.048912"
       y2="52.137466"
       gradientUnits="userSpaceOnUse" /><linearGradient
       inkscape:collect="always"
       xlink:href="#linearGradient361"
       id="linearGradient282"
       x1="45.343067"
       y1="202.75066"
       x2="-96.048912"
       y2="52.137466"
       gradientUnits="userSpaceOnUse" /><linearGradient
       inkscape:collect="always"
       xlink:href="#linearGradient359"
       id="linearGradient283"
       x1="45.343067"
       y1="202.75066"
       x2="-96.048912"
       y2="52.137466"
       gradientUnits="userSpaceOnUse" /><linearGradient
       inkscape:collect="always"
       xlink:href="#linearGradient357"
       id="linearGradient284"
       x1="45.343067"
       y1="202.75066"
       x2="-96.048912"
       y2="52.137466"
       gradientUnits="userSpaceOnUse" /><linearGradient
       inkscape:collect="always"
       xlink:href="#linearGradient355"
       id="linearGradient285"
       x1="45.343067"
       y1="202.75066"
       x2="-96.048912"
       y2="52.137466"
       gradientUnits="userSpaceOnUse" /><linearGradient
       inkscape:collect="always"
       xlink:href="#linearGradient351"
       id="linearGradient287"
       x1="45.343067"
       y1="202.75066"
       x2="-96.048912"
       y2="52.137466"
       gradientUnits="userSpaceOnUse" /><linearGradient
       inkscape:collect="always"
       xlink:href="#linearGradient349"
       id="linearGradient288"
       x1="45.343067"
       y1="202.75066"
       x2="-96.048912"
       y2="52.137466"
       gradientUnits="userSpaceOnUse" /><linearGradient
       inkscape:collect="always"
       xlink:href="#linearGradient347"
       id="linearGradient289"
       x1="45.343067"
       y1="202.75066"
       x2="-96.048912"
       y2="52.137466"
       gradientUnits="userSpaceOnUse" /><linearGradient
       inkscape:collect="always"
       xlink:href="#linearGradient345"
       id="linearGradient290"
       x1="45.343067"
       y1="202.75066"
       x2="-96.048912"
       y2="52.137466"
       gradientUnits="userSpaceOnUse" /><linearGradient
       inkscape:collect="always"
       xlink:href="#linearGradient343"
       id="linearGradient291"
       x1="45.343067"
       y1="202.75066"
       x2="-96.048912"
       y2="52.137466"
       gradientUnits="userSpaceOnUse" /><linearGradient
       inkscape:collect="always"
       xlink:href="#linearGradient341"
       id="linearGradient292"
       x1="45.343067"
       y1="202.75066"
       x2="-96.048912"
       y2="52.137466"
       gradientUnits="userSpaceOnUse" /><linearGradient
       inkscape:collect="always"
       xlink:href="#linearGradient339"
       id="linearGradient293"
       x1="45.343067"
       y1="202.75066"
       x2="-96.048912"
       y2="52.137466"
       gradientUnits="userSpaceOnUse" /><linearGradient
       inkscape:collect="always"
       xlink:href="#linearGradient337"
       id="linearGradient294"
       x1="45.343067"
       y1="202.75066"
       x2="-96.048912"
       y2="52.137466"
       gradientUnits="userSpaceOnUse" /><linearGradient
       inkscape:collect="always"
       xlink:href="#linearGradient335"
       id="linearGradient295"
       x1="45.343067"
       y1="202.75066"
       x2="-96.048912"
       y2="52.137466"
       gradientUnits="userSpaceOnUse" /><linearGradient
       inkscape:collect="always"
       xlink:href="#linearGradient333"
       id="linearGradient296"
       x1="45.343067"
       y1="202.75066"
       x2="-96.048912"
       y2="52.137466"
       gradientUnits="userSpaceOnUse" /><linearGradient
       inkscape:collect="always"
       xlink:href="#linearGradient331"
       id="linearGradient297"
       x1="45.343067"
       y1="202.75066"
       x2="-96.048912"
       y2="52.137466"
       gradientUnits="userSpaceOnUse" /><linearGradient
       inkscape:collect="always"
       xlink:href="#linearGradient329"
       id="linearGradient298"
       x1="45.343067"
       y1="202.75066"
       x2="-96.048912"
       y2="52.137466"
       gradientUnits="userSpaceOnUse" /><linearGradient
       inkscape:collect="always"
       xlink:href="#linearGradient327"
       id="linearGradient299"
       x1="45.343067"
       y1="202.75066"
       x2="-96.048912"
       y2="52.137466"
       gradientUnits="userSpaceOnUse" /><linearGradient
       inkscape:collect="always"
       xlink:href="#linearGradient313"
       id="linearGradient312"
       gradientUnits="userSpaceOnUse"
       x1="45.343067"
       y1="202.75066"
       x2="-96.048912"
       y2="52.137466" /></defs><g
     inkscape:label="Capa 1"
     inkscape:groupmode="layer"
     id="layer1"
     transform="translate(-44.574634,-105.54368)"><g
       id="g1"
       transform="translate(105.65977,8.8369987)"><path
         d="m -4.9934689,126.38118 c 0.2619375,0.0873 0.523875,0.17462 0.79375,0.26458 0.2223378,0.53647 0.2223378,0.53647 0.398942,1.24954 0.068554,0.26475 0.1371079,0.5295 0.2077393,0.80228 0.072647,0.28879 0.1452935,0.57759 0.2201416,0.87514 1.3674958,5.0961 3.18984255,9.7538 5.6862889,14.39485 1.5761237,2.93949 2.6871406,5.91026 3.5410547,9.13653 0.090754,-2.23311 -0.3319161,-4.36597 -0.7053834,-6.56084 L 5.0017866,145.64202 4.863229,144.82631 c -0.065098,-0.69647 -0.060876,-1.13043 0.1974686,-1.77638 0.6666259,-0.54054 0.6666259,-0.54054 1.5378906,-1.10794 0.9526339,-0.62238 1.8833706,-1.23927 2.7522869,-1.97611 0.3975105,-0.33151 0.3975105,-0.33151 0.8030519,-0.66973 l 0.715202,-0.62321 c 1.388294,-0.66389 2.502489,-0.0933 3.894206,0.38815 0.810042,0.2949 1.61424,0.60297 2.418586,0.91306 2.906005,1.09827 5.8316,2.11676 8.78086,3.09232 0.301839,0.0999 0.301839,0.0999 0.609774,0.20176 1.000295,0.33068 2.00088,0.66048 3.001632,0.98977 1.741395,0.57335 3.480118,1.15469 5.219062,1.73542 0.564296,0.18814 1.128599,0.37624 1.692921,0.56431 0.717476,0.23916 1.434925,0.47839 2.152065,0.71856 0.863071,0.28642 1.728081,0.56612 2.593898,0.84413 0.493692,0.1586 0.493692,0.1586 0.997355,0.3204 l 1.030428,0.33072 c 0.349679,0.11231 0.699357,0.22462 1.04903,0.33693 0.851948,0.27362 1.703922,0.54716 2.555918,0.82063 v 0.52916 c 0.283765,0.0218 0.567531,0.0437 0.859896,0.0661 1.54297,0.18593 2.975472,0.73493 4.43177,1.25677 -0.395483,1.08052 -0.992499,1.3992 -1.984375,1.93477 -1.030856,0.57649 -2.01854,1.16126 -2.976562,1.85208 -1.113729,0.79832 -2.258076,1.52896 -3.423047,2.24896 -1.368428,0.84625 -2.718866,1.71114 -4.051432,2.61276 -3.254148,2.19378 -6.612237,4.23098 -9.951847,6.29109 -2.315123,1.42824 -4.620779,2.86662 -6.900418,4.35096 -1.376114,0.89552 -2.760213,1.77759 -4.149037,2.65326 -0.207538,0.13086 -0.415075,0.26172 -0.628902,0.39655 -0.863453,0.54407 -1.72722,1.08764 -2.591056,1.6311 -0.668677,0.42079 -1.337122,0.84194 -2.005563,1.2631 -0.200332,0.12584 -0.400665,0.25167 -0.607069,0.38131 -1.206427,0.76024 -2.397561,1.53967 -3.5790446,2.33817 -0.77842,0.51049 -1.5810127,0.96413 -2.3953965,1.41464 0.087313,0.17462 0.174625,0.34925 0.2645834,0.52917 -0.7606771,-0.0827 -0.7606771,-0.0827 -1.5875,-0.26459 -0.568225,-0.85233 -0.6776159,-1.127 -0.5291667,-2.11666 0.5648603,-0.56487 1.0691969,-0.79777 1.8190104,-1.07487 1.4049193,-0.87105 2.1630524,-2.40466 2.6789063,-3.95222 0.060524,-0.71209 0.11036,-1.41996 0.1488281,-2.1332 l 0.034623,-0.58756 c 0.09664,-1.60204 0.09664,-1.60204 -0.3488158,-3.10007 -0.4539824,-1.09979 -0.8320675,-2.20787 -1.1896561,-3.34133 -0.5583338,-1.75676 -1.112058,-3.36658 -2.1331386,-4.91553 -0.6673722,-1.02618 -1.2628459,-2.09052 -1.8696532,-3.1533 -1.1117564,-1.93021 -2.2629225,-3.82962 -3.45301908,-5.71231 -1.0282404,-1.62665 -2.03377932,-3.26748 -3.04206242,-4.90655 -0.1407317,-0.22804 -0.2814634,-0.45609 -0.4264597,-0.69104 -0.1888112,-0.30667 -0.1888112,-0.30667 -0.3814367,-0.61954 -0.2712578,-0.45913 -0.2712578,-0.45913 -0.5683762,-0.73748 -0.057526,-0.54825 -0.098388,-1.09827 -0.1322916,-1.64848 l -0.066146,-1.02475 c -0.022152,-0.36017 -0.044199,-0.72036 -0.066146,-1.08055 -0.043118,-0.69839 -0.087444,-1.39668 -0.1322916,-2.09496 l -0.057878,-0.94381 c -0.070541,-0.83455 -0.1887348,-1.64432 -0.3389974,-2.46787 -0.0091,0.25865 -0.018204,0.51731 -0.027582,0.7838 -0.035821,0.97174 -0.079689,1.94299 -0.1258322,2.91429 -0.018774,0.41815 -0.035448,0.83639 -0.049868,1.25471 -0.088269,2.51447 -0.2365839,4.52645 -1.6488011,6.68887 -0.1169212,0.19483 -0.2338424,0.38966 -0.3543066,0.5904 -0.362376,0.59849 -0.7376532,1.18674 -1.1174382,1.77431 -0.2808285,0.43922 -0.5616022,0.87847 -0.8423259,1.31775 l -0.4318857,0.67321 c -0.4193826,0.65629 -0.8347946,1.31489 -1.2486323,1.97469 -2.176888,3.46953 -2.176888,3.46953 -3.105753,4.83795 -0.118989,0.17539 -0.237978,0.35078 -0.360572,0.53149 -0.219092,0.32079 -0.439835,0.64046 -0.662751,0.9586 -2.657626,3.88116 -4.76806,9.61756 -4.047169,14.3291 0.231151,0.95104 0.497575,1.86288 0.826823,2.78432 0.231511,0.65526 0.231511,0.65526 0.231511,1.18443 0.162687,0.045 0.325375,0.09 0.492993,0.13642 1.738649,0.52132 1.738649,0.52132 2.43396,1.15342 0.304877,0.69105 0.365945,1.13846 0.248047,1.88516 -0.79375,0.52916 -0.79375,0.52916 -1.306381,0.47955 -0.633089,-0.2494 -1.062568,-0.59605 -1.604036,-1.00872 -0.919315,-0.63837 -1.849028,-1.26114 -2.778125,-1.88516 -0.377047,-0.25631 -0.377047,-0.25631 -0.761711,-0.51779 l -0.734839,-0.493 c -0.220498,-0.14874 -0.440996,-0.29749 -0.668176,-0.45075 -0.576802,-0.33614 -1.032193,-0.46604 -1.671732,-0.62205 l -0.572575,-0.58394 c -0.973411,-0.95867 -2.052333,-1.56515 -3.230811,-2.24379 -1.639652,-0.96272 -3.256952,-1.93923 -4.828645,-3.00964 -1.366457,-0.92784 -2.753485,-1.80824 -4.167188,-2.66237 -4.927687,-2.98194 -9.737402,-6.15585 -14.558026,-9.30667 -4.623411,-3.05952 -4.623411,-3.05952 -9.38263,-5.8986 -0.186904,-0.12279 -0.373808,-0.24557 -0.566375,-0.37207 v -0.52917 c 0.583229,-0.2237 1.167471,-0.44356 1.752865,-0.66146 0.488063,-0.18417 0.488063,-0.18417 0.985985,-0.37207 0.91516,-0.27435 1.606098,-0.34765 2.552817,-0.28939 v -0.52916 c 1.118737,-0.37552 2.237793,-0.75008 3.356901,-1.12448 0.311904,-0.10471 0.623808,-0.20942 0.945163,-0.3173 1.515697,-0.50661 3.032553,-1.00155 4.562512,-1.46347 1.851882,-0.56461 3.66854,-1.21613 5.489069,-1.87379 3.162816,-1.13665 6.342192,-2.21203 9.535988,-3.25812 2.487794,-0.8167 4.940681,-1.68677 7.342246,-2.73551 1.089635,-0.46522 1.959648,-0.8035 3.163954,-0.60442 0.62165,0.35868 1.14212,0.70521 1.703255,1.14102 0.156783,0.11696 0.313566,0.23393 0.4751,0.35443 0.33476,0.2499 0.668412,0.50129 1.001037,0.75403 0.722835,0.54595 1.455797,1.07756 2.188303,1.61043 2.236776,1.6279 2.236776,1.6279 2.569805,1.96093 0.0108,0.52905 0.01125,1.05845 0,1.5875 -0.174625,-0.0873 -0.34925,-0.17463 -0.529167,-0.26459 -0.133639,1.03061 -0.265424,2.06144 -0.396875,3.09232 -0.03786,0.29178 -0.07572,0.58356 -0.114722,0.88418 -0.05372,0.42335 -0.05372,0.42335 -0.10852,0.85525 -0.03325,0.2591 -0.06651,0.5182 -0.100769,0.78516 -0.06872,0.69137 -0.08616,1.36184 -0.07286,2.05601 0.06787,-0.24113 0.135744,-0.48226 0.205672,-0.73071 1.210751,-4.15278 2.997538,-8.04593 4.8710207,-11.93622 2.2281165,-4.63844 3.7981903,-9.24814 4.7128906,-14.32057 z m 42.5979159,21.69583 0.264584,0.52917 z m -83.343749,0.79375 0.264584,0.52917 z m 82.814583,0 0.264583,0.52917 z m -82.549999,0.52917 0.264583,0.52917 z m 82.020832,0.26458 0.264583,0.52917 z m -81.756249,0.26459 c 0.08731,0.26193 0.174625,0.52387 0.264583,0.79375 v -0.79375 z m 81.491666,0.26458 0.264583,0.52917 z m -80.962499,0.52917 0.264583,0.52916 z m 80.433332,0.26458 0.264583,0.52917 z m -80.168749,0.26458 0.264583,0.52917 z m 79.904166,0.26459 0.264583,0.52916 z m 7.143749,0 1.058334,0.26458 z m -93.927082,0.26458 1.058334,0.26458 z m 92.074999,0.26458 1.058334,0.26459 z m -84.402082,0.52917 0.264583,0.52917 z m 78.316666,0.26458 0.264583,0.52917 z m -78.052083,0.26459 0.264584,0.52916 z m -2.645833,0.26458 1.058333,0.26458 z m 80.433332,0 c -0.34925,0.43656 -0.6985,0.87312 -1.058333,1.32292 0.6985,-0.17463 1.397,-0.34925 2.116667,-0.52917 -0.261938,-0.0873 -0.523875,-0.17463 -0.79375,-0.26458 -0.08731,-0.17463 -0.174625,-0.34925 -0.264584,-0.52917 z m 1.852084,0 1.058333,0.26458 z m -79.374999,0.26458 -1.058334,0.52917 c 0.384657,0.18441 0.770792,0.36574 1.157552,0.5457 0.322305,0.15195 0.322305,0.15195 0.651124,0.30696 0.18895,0.0679 0.377899,0.13574 0.572574,0.20567 0.174625,-0.0873 0.34925,-0.17462 0.529167,-0.26458 -0.707094,-0.61988 -0.707094,-0.61988 -1.5875,-0.79375 -0.08731,-0.17463 -0.174625,-0.34925 -0.264583,-0.52917 z m 27.781249,0.52917 0.264584,1.05833 z m 21.43125,0.26458 0.2645833,0.79375 z m -47.360416,0.79375 c 0.08731,0.17463 0.174625,0.34925 0.264583,0.52917 0.174625,-0.0873 0.34925,-0.17463 0.529167,-0.26458 -0.261938,-0.0873 -0.523875,-0.17463 -0.79375,-0.26459 z m 73.024999,0 c -0.08731,0.17463 -0.174625,0.34925 -0.264583,0.52917 0.261937,-0.0873 0.523875,-0.17463 0.79375,-0.26458 -0.174625,-0.0873 -0.34925,-0.17463 -0.529167,-0.26459 z m -47.360416,0.52917 0.264583,0.79375 z m 46.566666,0 c -0.08731,0.17462 -0.174625,0.34925 -0.264583,0.52917 0.261937,-0.0873 0.523875,-0.17463 0.79375,-0.26459 -0.174625,-0.0873 -0.34925,-0.17462 -0.529167,-0.26458 z m -0.79375,0.52917 c -0.08731,0.17462 -0.174625,0.34925 -0.264583,0.52916 0.261937,-0.0873 0.523875,-0.17462 0.79375,-0.26458 -0.174625,-0.0873 -0.34925,-0.17463 -0.529167,-0.26458 z m -69.320832,0.26458 c 0.08731,0.17462 0.174625,0.34925 0.264583,0.52917 0.174625,-0.0873 0.34925,-0.17463 0.529167,-0.26459 -0.261938,-0.0873 -0.523875,-0.17462 -0.79375,-0.26458 z m 1.322916,0.79375 0.264584,0.52917 c 0.174625,-0.0873 0.34925,-0.17463 0.529166,-0.26459 -0.261937,-0.0873 -0.523875,-0.17462 -0.79375,-0.26458 z m 66.410416,0 c -0.261937,0.26194 -0.523875,0.52387 -0.79375,0.79375 0.436563,-0.17463 0.873125,-0.34925 1.322917,-0.52917 -0.174625,-0.0873 -0.34925,-0.17462 -0.529167,-0.26458 z m -65.087499,0.79375 c 0.08731,0.17462 0.174625,0.34925 0.264583,0.52917 0.174625,-0.0873 0.34925,-0.17463 0.529167,-0.26459 -0.261938,-0.0873 -0.523875,-0.17462 -0.79375,-0.26458 z m 62.970832,0.52917 c -0.08731,0.17462 -0.174625,0.34925 -0.264583,0.52916 0.261938,-0.0873 0.523875,-0.17462 0.79375,-0.26458 -0.174625,-0.0873 -0.34925,-0.17463 -0.529167,-0.26458 z m -0.79375,0.52916 c -0.08731,0.17463 -0.174625,0.34925 -0.264583,0.52917 0.261938,-0.0873 0.523875,-0.17463 0.79375,-0.26458 -0.174625,-0.0873 -0.34925,-0.17463 -0.529167,-0.26459 z m -0.79375,0.52917 c -0.08731,0.17462 -0.174625,0.34925 -0.264583,0.52917 0.261938,-0.0873 0.523875,-0.17463 0.79375,-0.26459 -0.174625,-0.0873 -0.34925,-0.17462 -0.529167,-0.26458 z m -0.79375,0.52917 c -0.08731,0.17462 -0.174625,0.34925 -0.264583,0.52916 0.261938,-0.0873 0.523875,-0.17462 0.79375,-0.26458 -0.174625,-0.0873 -0.34925,-0.17463 -0.529167,-0.26458 z m -0.79375,0.52916 c -0.08731,0.17463 -0.174625,0.34925 -0.264583,0.52917 0.261938,-0.0873 0.523875,-0.17463 0.79375,-0.26458 -0.174625,-0.0873 -0.34925,-0.17463 -0.529167,-0.26459 z m -53.445832,1.32292 c 0.08731,0.17462 0.174625,0.34925 0.264583,0.52917 0.174625,-0.0873 0.34925,-0.17463 0.529167,-0.26459 -0.261938,-0.0873 -0.523875,-0.17462 -0.79375,-0.26458 z m 0.79375,0.52917 c 0.08731,0.17462 0.174625,0.34925 0.264583,0.52916 0.174625,-0.0873 0.34925,-0.17462 0.529167,-0.26458 -0.261938,-0.0873 -0.523875,-0.17463 -0.79375,-0.26458 z m 47.360416,1.5875 c -0.08731,0.17462 -0.174625,0.34925 -0.264584,0.52916 0.261938,-0.0873 0.523875,-0.17462 0.79375,-0.26458 -0.174625,-0.0873 -0.34925,-0.17463 -0.529166,-0.26458 z m -43.920833,0.52916 c 0.08731,0.17463 0.174625,0.34925 0.264583,0.52917 0.174625,-0.0873 0.34925,-0.17463 0.529167,-0.26458 -0.261937,-0.0873 -0.523875,-0.17463 -0.79375,-0.26459 z m 43.127083,0 c -0.08731,0.17463 -0.174625,0.34925 -0.264584,0.52917 0.261938,-0.0873 0.523875,-0.17463 0.79375,-0.26458 -0.174625,-0.0873 -0.34925,-0.17463 -0.529166,-0.26459 z m -42.333333,0.52917 c 0.08731,0.17462 0.174625,0.34925 0.264583,0.52917 0.174625,-0.0873 0.34925,-0.17463 0.529167,-0.26459 -0.261937,-0.0873 -0.523875,-0.17462 -0.79375,-0.26458 z m 41.539583,0 -0.264584,0.52917 c 0.261938,-0.0873 0.523875,-0.17463 0.79375,-0.26459 -0.174625,-0.0873 -0.34925,-0.17462 -0.529166,-0.26458 z m -0.79375,0.52917 c -0.08731,0.17462 -0.174625,0.34925 -0.264583,0.52916 0.261937,-0.0873 0.523875,-0.17462 0.793749,-0.26458 -0.174624,-0.0873 -0.349249,-0.17463 -0.529166,-0.26458 z m -0.79375,0.52916 c -0.08731,0.17463 -0.174625,0.34925 -0.264583,0.52917 0.261937,-0.0873 0.523875,-0.17463 0.79375,-0.26458 -0.174625,-0.0873 -0.34925,-0.17463 -0.529167,-0.26459 z m -37.570833,0.52917 c 0.08731,0.17462 0.174625,0.34925 0.264583,0.52917 0.174625,-0.0873 0.34925,-0.17463 0.529167,-0.26459 -0.261938,-0.0873 -0.523875,-0.17462 -0.79375,-0.26458 z m 36.247916,0.26458 c -0.08731,0.17463 -0.174625,0.34925 -0.264583,0.52917 0.261937,-0.0873 0.523875,-0.17463 0.79375,-0.26458 -0.174625,-0.0873 -0.34925,-0.17463 -0.529167,-0.26459 z m -35.454166,0.26459 c 0.08731,0.17462 0.174625,0.34925 0.264583,0.52916 0.174625,-0.0873 0.34925,-0.17462 0.529167,-0.26458 -0.261938,-0.0873 -0.523875,-0.17463 -0.79375,-0.26458 z m 34.660416,0.26458 c -0.08731,0.17462 -0.174625,0.34925 -0.264583,0.52917 0.261937,-0.0873 0.523875,-0.17463 0.79375,-0.26459 -0.174625,-0.0873 -0.34925,-0.17462 -0.529167,-0.26458 z m -33.866666,0.26458 c 0.08731,0.17463 0.174625,0.34925 0.264583,0.52917 0.174625,-0.0873 0.34925,-0.17463 0.529167,-0.26458 -0.261938,-0.0873 -0.523875,-0.17463 -0.79375,-0.26459 z"
         fill="#050613"
         id="path1"
         style="fill:url(#linearGradient257);fill-opacity:1;stroke:#000000;stroke-width:0;stroke-dasharray:none;stroke-opacity:1"
         sodipodi:nodetypes="ccccccccccccccccccccccccccsccccccccccscccccccccccccccccscccccccccccccccccccccccccccccccccccccccccccccccccccccccccccccccccccccccccccccccccccccccccccccccccccccccccccccccccccccccccccccccccccccccccccccccccccccccccccccccccccccccccccccccccccccccccccccccccccccccccccccccccccccccccccccccccccccccccccccccccccccccccccccccccc" /><path
         d="m -43.333633,98.318685 c 0.726765,0.265687 1.455034,0.526916 2.183729,0.787254 1.881361,0.672819 3.755197,1.363881 5.624968,2.068261 0.768478,0.28762 1.539502,0.56604 2.312003,0.84258 2.498242,0.93331 2.498242,0.93331 3.249414,1.89756 0.294135,0.69167 0.455872,1.36217 0.628385,2.09393 0.24683,0.72887 0.521004,1.44677 0.79375,2.16627 0.06297,0.17597 0.125938,0.35194 0.190816,0.53324 0.328874,0.90222 0.694639,1.72697 1.18171,2.55598 0.479558,0.82992 0.479558,0.82992 0.479558,1.35909 h -0.79375 v -0.52917 c -0.14734,-0.06 -0.29468,-0.12005 -0.446485,-0.1819 -0.782669,-0.44421 -1.297076,-1.03249 -1.934765,-1.67018 -1.648169,-1.38362 -3.411654,-2.54557 -5.242057,-3.67109 -0.405505,-0.25113 -0.405505,-0.25113 -0.819201,-0.50734 -0.733359,-0.45317 -1.467606,-0.90485 -2.202498,-1.35553 -0.48102,-0.29517 -0.96166,-0.59095 -1.442241,-0.88684 -0.82517,-0.50777 -1.651255,-1.01403 -2.478038,-1.51917 -0.317567,-0.19412 -0.634957,-0.38854 -0.952155,-0.58327 -1.84365,-1.1306 -3.693647,-2.192914 -5.649227,-3.118426 l 0.573609,0.418579 c 1.945768,1.437297 3.79814,2.955497 5.635315,4.528147 1.090164,0.92699 2.205212,1.82424 3.316076,2.72619 0.340039,0.27629 0.680069,0.55258 1.020093,0.82889 0.549749,0.44671 1.09957,0.89333 1.649641,1.33965 1.02628,0.83295 2.048745,1.67023 3.068417,2.51128 0.771373,0.63497 1.550637,1.25467 2.348177,1.85622 l 0.482981,0.36515 c 0.311946,0.23476 0.625029,0.46801 0.939348,0.69957 0.367729,0.27643 0.722599,0.5698 1.074676,0.86591 0,0.52916 0,0.52916 -0.370003,0.90227 l -0.522965,0.43718 c -2.334158,1.9753 -4.534614,4.05675 -6.680729,6.23424 -1.431975,1.45273 -2.862907,2.87934 -4.412522,4.20685 -0.575551,0.50007 -1.109077,1.03384 -1.639822,1.58092 -0.889303,0.90148 -1.80896,1.73952 -2.769857,2.56315 -0.811084,0.72373 -1.563367,1.50321 -2.326473,2.27686 -0.723461,0.71336 -1.481095,1.37713 -2.253092,2.03709 -0.377495,0.33041 -0.734072,0.68455 -1.084172,1.04386 -0.429948,0.41341 -0.429948,0.41341 -0.959114,0.41341 v 0.52917 c -0.38654,0.39894 -0.38654,0.39894 -0.892969,0.82682 -0.165758,0.14257 -0.331515,0.28513 -0.502295,0.43201 -0.45682,0.32867 -0.45682,0.32867 -0.985986,0.32867 0.45616,-1.36299 1.244588,-2.50493 2.017448,-3.70417 0.289185,-0.45328 0.578229,-0.90666 0.86713,-1.36012 l 0.426718,-0.66818 c 1.063852,-1.67222 2.0971,-3.36356 3.112084,-5.06584 0.102639,-0.17202 0.205278,-0.34405 0.311028,-0.52129 0.204315,-0.34292 0.408148,-0.68613 0.611461,-1.02965 0.678049,-1.13798 1.40442,-2.22372 2.206002,-3.27977 0.331047,-0.71103 0.178264,-1.08346 -0.02687,-1.83348 -0.827541,-1.57639 -1.923325,-3.01728 -2.963442,-4.45909 -5.822326,-8.08808 -5.822326,-8.08808 -5.203502,-12.28821 0.05998,-0.31182 0.05998,-0.31182 0.121182,-0.62994 0.174082,-0.98799 0.176571,-1.97844 0.20748,-2.97914 0.0756,-1.308922 0.239822,-2.484947 0.694532,-3.720706 2.693412,-0.897804 5.686627,0.377358 8.2265,1.306251 z"
         fill="#090a16"
         id="path7"
         style="fill:url(#linearGradient258);fill-opacity:1;stroke:#000000;stroke-width:0;stroke-dasharray:none;stroke-opacity:1"
         sodipodi:nodetypes="scccccccccccccccccccccccccccccccccccccccccccccccccccccccccss" /><path
         d="m 36.810697,147.01868 c 3.440521,0.65196 6.749792,1.77489 10.054167,2.91042 v 0.52916 c 0.283765,0.0218 0.567531,0.0437 0.859895,0.0661 1.542972,0.18593 2.975472,0.73493 4.431771,1.25677 -0.395484,1.08052 -0.992499,1.3992 -1.984375,1.93477 -1.030855,0.57649 -2.018541,1.16126 -2.976562,1.85208 -1.113729,0.79832 -2.258075,1.52896 -3.423047,2.24896 -1.368428,0.84625 -2.718867,1.71114 -4.051432,2.61276 -3.254147,2.19378 -6.612238,4.23098 -9.951848,6.29109 -2.315123,1.42824 -4.620777,2.86662 -6.900418,4.35096 -1.376112,0.89552 -2.760213,1.77759 -4.149036,2.65326 -0.311307,0.19629 -0.311307,0.19629 -0.628902,0.39655 -0.863453,0.54407 -1.72722,1.08764 -2.591057,1.6311 -0.668676,0.42079 -1.337121,0.84194 -2.005562,1.26311 -0.300499,0.18874 -0.300499,0.18874 -0.607069,0.3813 -1.206428,0.76024 -2.397561,1.53967 -3.579044,2.33817 -0.7784201,0.51049 -1.5810124,0.96413 -2.3953973,1.41464 0.087313,0.17462 0.174625,0.34925 0.2645833,0.52917 -0.760677,-0.0827 -0.760677,-0.0827 -1.5874999,-0.26459 -0.5682245,-0.85233 -0.6776165,-1.127 -0.5291667,-2.11666 0.5648616,-0.56487 1.0691971,-0.79777 1.8190104,-1.07487 1.404919,-0.87105 2.1630534,-2.40466 2.6789062,-3.95222 -0.00489,-0.49361 -0.010107,-0.98722 -0.018203,-1.48079 0.00701,-2.3804 0.00701,-2.3804 0.711713,-3.33132 0.711423,-0.49319 1.447158,-0.87639 2.216907,-1.2733 0.785484,-0.4776 1.557355,-0.97627 2.33164,-1.47175 0.440225,-0.27639 0.88051,-0.55268 1.32085,-0.82889 1.393863,-0.88097 2.766604,-1.79177 4.136181,-2.70991 2.46929,-1.65531 4.95541,-3.28273 7.451613,-4.89712 0.634327,-0.41083 1.267675,-0.82314 1.900788,-1.23584 0.399281,-0.25977 0.798567,-0.51953 1.19786,-0.77928 0.178632,-0.11671 0.357265,-0.23342 0.54131,-0.35366 1.094621,-0.71062 2.206089,-1.37322 3.344757,-2.01105 -0.08185,-0.43384 -0.08185,-0.43384 -0.165364,-0.87644 -0.09922,-0.97565 -0.09922,-0.97565 0.429948,-1.7694 h 0.529166 c 0.03274,-0.20736 0.06549,-0.41473 0.09922,-0.62838 0.165365,-0.69453 0.165365,-0.69453 0.694531,-1.2237 h 0.79375 c 0.261938,-0.52388 0.523875,-1.04775 0.79375,-1.5875 -0.34925,-0.26194 -0.6985,-0.52388 -1.058333,-0.79375 z m -0.529167,3.175 0.264584,0.52917 z m -0.529166,0.79375 0.264583,0.52917 z m -0.264584,0.52917 0.264584,0.52916 z m 7.14375,0 1.058334,0.26458 z m -1.852083,0.52916 1.058333,0.26459 z m -6.085417,0.79375 0.264584,0.52917 z m 1.5875,0.52917 1.058334,0.26458 z"
         fill="#0a0b17"
         id="path8"
         style="fill:url(#linearGradient259);fill-opacity:1;stroke:#000000;stroke-width:0;stroke-dasharray:none;stroke-opacity:1"
         sodipodi:nodetypes="cccccccccccscccccccccccccccccccccccccccccccccccccccccccccccccccc" /><path
         d="m 42.366947,96.747851 c 0.113989,1.39788 0.226999,2.795835 0.339127,4.193869 0.03823,0.47501 0.07673,0.95 0.115496,1.42497 0.05586,0.68499 0.110767,1.37004 0.165494,2.05511 0.01736,0.21036 0.03473,0.42073 0.05261,0.63747 0.2835,3.58849 0.2835,3.58849 -0.90424,5.31462 -0.106945,0.15828 -0.21389,0.31655 -0.324076,0.47962 -0.226463,0.33467 -0.454675,0.66817 -0.684519,1.00052 -0.450775,0.65429 -0.888799,1.31663 -1.327245,1.97921 -0.552136,0.83339 -1.109422,1.66334 -1.665983,2.49378 -0.479947,0.71632 -0.959428,1.43295 -1.438672,2.14974 -0.10929,0.16283 -0.21858,0.32567 -0.331181,0.49344 -0.294355,0.44029 -0.585285,0.88286 -0.875981,1.32557 -0.161323,0.22851 -0.322647,0.45702 -0.488859,0.69246 -0.351082,0.60725 -0.351082,0.60725 -0.299723,1.25367 0.360716,0.97293 0.918019,1.78357 1.49965,2.63447 1.25533,1.88289 2.411668,3.80916 3.538802,5.77122 1.174766,2.04269 2.380181,4.04303 3.729036,5.97599 0.752344,1.08493 0.752344,1.08493 0.752344,1.66385 -0.858735,-0.3759 -1.418858,-0.83016 -2.071191,-1.49965 -0.189973,-0.19287 -0.379946,-0.38574 -0.575676,-0.58446 -0.196112,-0.20174 -0.392224,-0.40347 -0.594278,-0.61133 -1.279335,-1.31001 -2.563909,-2.58354 -3.959707,-3.77012 -0.488052,-0.42761 -0.944029,-0.87631 -1.398106,-1.33964 -1.170957,-1.18951 -2.439403,-2.26128 -3.706233,-3.34657 -0.2176,-0.18895 -0.435199,-0.3779 -0.659392,-0.57258 l -0.611849,-0.52606 c -0.446484,-0.44959 -0.446484,-0.44959 -0.446484,-0.97875 -0.156136,-0.07 -0.312271,-0.13995 -0.473138,-0.21205 -0.60644,-0.32863 -0.998656,-0.66826 -1.481653,-1.1577 -0.169602,-0.1705 -0.339204,-0.34099 -0.513946,-0.51666 -0.180543,-0.1841 -0.361086,-0.3682 -0.5471,-0.55789 -0.188536,-0.18991 -0.377073,-0.37982 -0.571323,-0.57549 -0.602512,-0.60722 -1.203229,-1.21618 -1.803726,-1.82539 -0.598824,-0.60616 -1.198038,-1.21192 -1.798057,-1.8169 -0.372984,-0.3762 -0.74526,-0.7531 -1.116711,-1.13081 -0.774572,-0.78239 -1.544782,-1.53333 -2.404416,-2.2222 -0.330172,-0.28128 -0.330172,-0.28128 -0.667013,-0.56825 v -0.52916 c 0.418636,-0.28732 0.851747,-0.55362 1.289843,-0.81029 1.320982,-0.81615 2.417467,-1.72212 3.550171,-2.77812 0.943413,-0.84948 1.937172,-1.62182 2.940196,-2.39902 1.033395,-0.80203 2.050967,-1.62016 3.060794,-2.45166 1.898969,-1.56214 3.836122,-3.035 5.854359,-4.43894 0.56452,-0.39444 1.125876,-0.79315 1.686977,-1.192431 0.404437,-0.287345 0.808891,-0.574666 1.213363,-0.861963 l 0.573026,-0.407792 c 2.626473,-1.857703 2.626473,-1.857703 3.379187,-1.857703 z"
         fill="#0a0b17"
         id="path9"
         style="fill:url(#linearGradient260);fill-opacity:1;stroke:#000000;stroke-width:0;stroke-dasharray:none;stroke-opacity:1"
         sodipodi:nodetypes="sccccccccccccccccccccccccccccccccccccccccccccccss" /><path
         d="m -4.3485471,167.01126 c 0.2825719,-0.005 0.5651438,-0.0106 0.8562785,-0.016 1.916001,0.001 3.41498941,0.2939 5.1133829,1.19011 0.3100276,0.15962 0.6200553,0.31923 0.9394774,0.48369 0.7943046,0.73562 0.8167259,1.57823 0.9239748,2.62103 0.026649,0.71044 0.041875,1.41086 0.03824,2.1208 0.00106,0.27184 0.00106,0.27184 0.00212,0.54918 -0.01714,3.39384 -0.01714,3.39384 -0.9953365,4.49134 -0.8345461,0.66034 -1.76471739,1.01008 -2.76055613,1.37563 l -2.64583327,1.32291 c 2.79399994,0.17463 5.5879999,0.34925 8.4666665,0.52917 -0.3124771,0.93743 -0.554787,1.06942 -1.3528889,1.61437 -0.2211803,0.15143 -0.4423606,0.30287 -0.6702433,0.45889 -0.2327767,0.1562 -0.4655531,0.31241 -0.7053834,0.47335 -0.229707,0.15826 -0.4594137,0.31651 -0.6960814,0.47956 -2.26138816,1.5342 -3.921886,1.55541 -6.646106,1.60404 -0.3368011,0.0143 -0.6736022,0.0286 -1.0206095,0.0434 -2.4857099,0.0358 -3.8979422,-0.50604 -5.8420206,-2.02778 -0.305706,-0.21026 -0.612446,-0.41904 -0.920874,-0.62528 -0.236358,-0.17019 -0.472715,-0.34039 -0.716235,-0.51573 -0.243861,-0.17361 -0.487722,-0.34721 -0.738973,-0.52607 -0.176331,-0.14836 -0.352661,-0.29673 -0.534335,-0.44958 v -0.52917 c 2.706688,-0.17463 5.4133753,-0.34925 8.2020836,-0.52917 -1.1112002,-0.62613 -1.1112002,-0.62613 -2.2235723,-1.25018 -0.3154984,-0.17905 -0.6278039,-0.36376 -0.9379273,-0.55197 -0.5497266,-0.33075 -0.5497266,-0.33075 -1.189204,-0.60681 -0.721293,-0.37091 -1.20075,-0.68135 -1.734713,-1.2952 -0.349477,-1.27997 -0.320973,-2.50084 -0.28112,-3.81993 -0.007,-0.34328 -0.01398,-0.68656 -0.02119,-1.04024 0.02817,-2.39185 0.02817,-2.39185 0.709646,-3.43817 2.1076727,-1.9945 4.6104836,-2.1545 7.3813328,-2.13617 z m -4.0845052,7.25951 -0.5291666,1.05833 c 0.3425499,0.54501 0.3425499,0.54501 0.79375,1.05833 h 0.79375 l 0.2645833,-1.05833 c -0.4365625,-0.34925 -0.873125,-0.6985 -1.3229167,-1.05833 z m 8.20208327,0 c -0.43656249,0.52387 -0.87312497,1.04775 -1.32291667,1.5875 0.34925,0.26193 0.69850001,0.52387 1.05833334,0.79375 0.34925,-0.52388 0.69849999,-1.04775 1.05833332,-1.5875 -0.26193749,-0.26194 -0.52387499,-0.52388 -0.79374999,-0.79375 z"
         fill="#0b0c17"
         id="path10"
         style="fill:url(#linearGradient261);fill-opacity:1;stroke:#000000;stroke-width:0;stroke-dasharray:none;stroke-opacity:1"
         sodipodi:nodetypes="cccccccccccccccccccccccccccccccccccccccccccc" /><path
         d="m -4.9934689,126.38118 c 0.2619375,0.0873 0.523875,0.17462 0.79375,0.26458 0.2223378,0.53647 0.2223378,0.53647 0.398942,1.24954 0.068554,0.26475 0.1371079,0.5295 0.2077393,0.80228 0.072647,0.28879 0.1452935,0.57759 0.2201416,0.87514 1.3629502,5.07916 3.17835302,9.70408 5.6689934,14.32646 2.4425386,4.56134 4.2776584,9.72657 4.451319,14.94307 0.095924,1.51668 0.4377623,2.49386 1.2236979,3.78685 -0.174625,0.0873 -0.34925,0.17462 -0.5291667,0.26458 -0.077763,-0.14564 -0.1555252,-0.29127 -0.2356445,-0.44132 -2.139901,-3.96619 -4.38762,-7.86578 -6.80242711,-11.67073 -0.91088342,-1.44642 -1.80262929,-2.90493 -2.69822029,-4.36085 l -0.4263951,-0.69091 c -0.1258741,-0.20445 -0.2517482,-0.40889 -0.3814367,-0.61954 -0.2712578,-0.45913 -0.2712578,-0.45913 -0.5683762,-0.73748 -0.057526,-0.54825 -0.098388,-1.09827 -0.1322916,-1.64848 l -0.066146,-1.02475 c -0.022152,-0.36017 -0.044199,-0.72036 -0.066146,-1.08055 -0.043118,-0.69839 -0.087444,-1.39668 -0.1322916,-2.09496 l -0.057878,-0.94381 c -0.070541,-0.83455 -0.1887348,-1.64432 -0.3389974,-2.46787 l -0.027582,0.7838 c -0.035821,0.97174 -0.079689,1.94299 -0.1258322,2.91429 -0.018774,0.41815 -0.035448,0.83639 -0.049868,1.25471 -0.088269,2.51447 -0.2365839,4.52645 -1.6488011,6.68887 -0.1169212,0.19483 -0.2338424,0.38966 -0.3543066,0.5904 -0.362376,0.59849 -0.7376532,1.18674 -1.1174382,1.77431 -0.2808285,0.43922 -0.5616022,0.87847 -0.8423259,1.31775 l -0.4318857,0.67321 c -0.4193826,0.65629 -0.8347946,1.31489 -1.2486324,1.97469 -1.626221,2.59256 -3.28792,5.15668 -5.001245,7.69255 -0.532267,-0.32142 -0.532267,-0.32142 -1.058333,-0.79375 -0.05478,-0.57981 -0.05478,-0.57981 0.04961,-1.20716 0.03104,-0.20771 0.06207,-0.41542 0.09405,-0.62942 0.120923,-0.54467 0.120923,-0.54467 0.385507,-1.07383 0.04286,-0.51191 0.07366,-1.02484 0.09922,-1.53789 0.165017,-2.59429 0.568312,-5.15419 0.959115,-7.72253 h 0.264583 c 0.03113,1.86792 -0.0884,3.6969 -0.264583,5.55625 0.06787,-0.24113 0.135744,-0.48226 0.205672,-0.73071 1.210751,-4.15278 2.997538,-8.04593 4.8710208,-11.93622 2.2281165,-4.63844 3.7981903,-9.24814 4.7128906,-14.32057 z m -10.3187501,27.78125 0.264584,1.05833 z m -0.264583,1.5875 0.264583,0.79375 z"
         fill="#15151d"
         id="path11"
         style="fill:url(#linearGradient262);fill-opacity:1;stroke:#000000;stroke-width:0;stroke-dasharray:none;stroke-opacity:1"
         sodipodi:nodetypes="sccccccccccccccccccccccccccccccccccccccccsscccccc" /><path
         d="M -18.487219,105.74368 H 9.558614 v 0.52917 c -0.3709088,0.17854 -0.3709088,0.17854 -0.7493079,0.3607 -0.9516293,0.46287 -1.8951308,0.9405 -2.8362614,1.42433 -0.4388204,0.22466 -0.8789858,0.44671 -1.3203327,0.66637 -0.6799561,0.34152 -1.3514954,0.69628 -2.022874,1.05433 -0.2119077,0.10379 -0.4238151,0.20758 -0.6421442,0.31451 -1.87643428,1.03 -2.36544248,2.40694 -3.012413,4.38184 -0.1120611,0.32584 -0.2241219,0.65169 -0.3395787,0.98741 -0.3549639,1.03999 -0.6950943,2.08452 -1.0329473,3.13017 -0.2283982,0.70636 -0.4584065,1.41217 -0.6893637,2.1177 l -0.301984,0.93386 c -0.2819596,0.76836 -0.2819596,0.76836 -0.8111263,1.56211 -0.4365625,-0.0873 -0.873125,-0.17463 -1.3229166,-0.26458 l -0.099219,-0.6842 c -0.6342824,-3.84534 -1.8453192,-7.53067 -3.0757812,-11.22205 -0.6073809,-0.28726 -0.6073809,-0.28726 -1.322916,-0.52917 -0.461889,-0.23041 -0.920662,-0.46714 -1.376661,-0.709 -0.25955,-0.13677 -0.5191,-0.27353 -0.786515,-0.41445 -0.538175,-0.28515 -1.0763,-0.57041 -1.614372,-0.85576 -1.540261,-0.8114 -3.086085,-1.57437 -4.689119,-2.25412 z"
         fill="#0f1017"
         id="path12"
         style="fill:url(#linearGradient263);fill-opacity:1;stroke:#000000;stroke-width:0;stroke-dasharray:none;stroke-opacity:1"
         sodipodi:nodetypes="ccccccccccccccccccccccc" /><path
         d="m -50.766385,96.747851 c 2.676991,0.0095 4.943476,0.660447 7.43275,1.570834 0.726765,0.265688 1.455034,0.526916 2.183729,0.787254 1.881361,0.672819 3.755197,1.363881 5.624968,2.068261 0.768479,0.28762 1.539502,0.56604 2.312003,0.84258 2.498242,0.93331 2.498242,0.93331 3.249414,1.89756 0.294135,0.69168 0.455872,1.36217 0.628386,2.09393 0.246829,0.72887 0.521004,1.44677 0.79375,2.16627 l 0.190815,0.53324 c 0.328875,0.90222 0.694639,1.72697 1.181711,2.55598 0.479557,0.82992 0.479557,0.82992 0.479557,1.35909 h -0.79375 v -0.52917 c -0.14734,-0.06 -0.29468,-0.12005 -0.446484,-0.1819 -0.78267,-0.44421 -1.297077,-1.03249 -1.934766,-1.67018 -1.648176,-1.38363 -3.411675,-2.54552 -5.242057,-3.67109 -0.270528,-0.16761 -0.541056,-0.33523 -0.819782,-0.50792 -0.888585,-0.54927 -1.778754,-1.09592 -2.669411,-1.64182 -0.158765,-0.0975 -0.317531,-0.19491 -0.481107,-0.29532 -1.144855,-0.70272 -2.291065,-1.4032 -3.438033,-2.10247 -0.153727,-0.0939 -0.307454,-0.18787 -0.465839,-0.28466 -3.441423,-2.277368 -3.441423,-2.277368 -7.256687,-3.667552 -0.479558,-0.413412 -0.479558,-0.413412 -0.79375,-0.79375 0.08731,-0.174625 0.174625,-0.34925 0.264583,-0.529167 z"
         fill="#16161a"
         id="path13"
         style="fill:url(#linearGradient264);fill-opacity:1;stroke:#000000;stroke-width:0;stroke-dasharray:none;stroke-opacity:1"
         sodipodi:nodetypes="cccccccccccccccccccccccc" /><path
         d="m 39.274629,96.995897 c 0.350444,0.0036 0.350444,0.0036 0.707967,0.0072 0.263472,0.0046 0.263472,0.0046 0.532267,0.0093 -0.345601,1.036803 -0.691034,1.092131 -1.650545,1.581299 l -0.895036,0.464701 -0.481495,0.246448 c -4.141207,2.125565 -8.112206,4.496095 -12.054173,6.967965 l -0.816359,0.51185 c -0.738676,0.46565 -1.47494,0.93476 -2.209813,1.40638 -0.212825,0.13561 -0.425649,0.27123 -0.644922,0.41096 -1.106852,0.72065 -2.042766,1.45505 -2.94349,2.43331 -0.430838,0.45088 -0.86987,0.89436 -1.322916,1.32292 h -0.529167 c 0.164436,-1.5173 0.713373,-2.81901 1.289844,-4.2168 0.09311,-0.22971 0.186221,-0.45941 0.282153,-0.69608 0.183296,-0.45075 0.369869,-0.90017 0.559914,-1.34811 0.283393,-0.67448 0.283393,-0.67448 0.549062,-1.62794 0.760861,-1.29728 1.774413,-1.61509 3.13986,-2.16524 0.177999,-0.0723 0.355997,-0.14466 0.539389,-0.21919 1.287716,-0.52087 2.582076,-1.02307 3.879915,-1.51811 0.686841,-0.26223 1.372627,-0.52709 2.058337,-0.792257 7.316756,-2.814541 7.316756,-2.814541 10.009208,-2.778642 z"
         fill="#16171d"
         id="path14"
         style="fill:url(#linearGradient265);fill-opacity:1;stroke:#000000;stroke-width:0;stroke-dasharray:none;stroke-opacity:1"
         sodipodi:nodetypes="ccccccccccccccccccccccc" /><path
         d="m -0.60394417,181.36749 c 1.2472859,0.092 2.49708437,0.13994 3.74641207,0.19585 0.4726731,0.0223 0.9453409,0.0446 1.4180013,0.0672 0.3397002,0.016 0.6794003,0.0321 1.0293945,0.0486 -0.3124771,0.93743 -0.554787,1.06942 -1.3528889,1.61437 -0.2211803,0.15143 -0.4423605,0.30287 -0.6702433,0.45889 -0.2327767,0.1562 -0.4655531,0.31241 -0.7053833,0.47335 -0.2297071,0.15826 -0.4594138,0.31651 -0.6960815,0.47956 -2.26138815,1.5342 -3.921886,1.55541 -6.646106,1.60404 -0.336801,0.0143 -0.6736021,0.0286 -1.0206095,0.0434 -2.4857099,0.0357 -3.8979422,-0.50605 -5.8420202,-2.02779 -0.305707,-0.21026 -0.612446,-0.41904 -0.920874,-0.62528 -0.236358,-0.17019 -0.472716,-0.34038 -0.716236,-0.51573 -0.243861,-0.17361 -0.487722,-0.34721 -0.738973,-0.52607 -0.17633,-0.14836 -0.35266,-0.29673 -0.534334,-0.44958 v -0.52917 c 9.3151054,-0.6627 9.3151054,-0.6627 13.64994183,-0.31161 z"
         fill="#15151a"
         id="path15"
         style="fill:url(#linearGradient266);fill-opacity:1;stroke:#000000;stroke-width:0;stroke-dasharray:none;stroke-opacity:1"
         sodipodi:nodetypes="cccccccccccccccccc" /><path
         d="m -46.003885,147.01868 c 0.0764,0.27285 0.152797,0.5457 0.23151,0.82682 0.04911,0.16917 0.09823,0.33834 0.148829,0.51263 0.129405,0.44573 0.255193,0.89251 0.380338,1.33946 0.329767,0.84273 0.77797,1.3937 1.35599,2.08359 0.130968,0.39291 0.130968,0.39291 0.264583,0.79375 0.174616,0.44168 0.350729,0.88277 0.529167,1.32292 -2.017448,0.33073 -2.017448,0.33073 -2.910417,-0.26459 -0.526441,-0.10322 -1.05574,-0.19368 -1.5875,-0.26458 v -0.52917 c -0.289223,0.0164 -0.578445,0.0328 -0.876432,0.0496 -0.975651,-0.0496 -0.975651,-0.0496 -1.35599,-0.44648 -0.391239,-0.45425 -0.391239,-0.45425 -1.011824,-0.47439 -0.317702,0.0138 -0.317702,0.0138 -0.641822,0.0279 -0.213847,0.007 -0.427694,0.0143 -0.648022,0.0217 -0.244032,0.0138 -0.244032,0.0138 -0.492993,0.0279 -0.08731,-0.17462 -0.174625,-0.34925 -0.264584,-0.52916 -0.527277,-0.0989 -1.056649,-0.18717 -1.5875,-0.26459 -0.08731,-0.0873 -0.174625,-0.17462 -0.264583,-0.26458 -0.578484,-0.0192 -1.157553,-0.0222 -1.736328,-0.0165 -0.316849,0.002 -0.633698,0.005 -0.960148,0.007 -0.367838,0.005 -0.367838,0.005 -0.743107,0.009 -0.03513,0.16235 -0.07026,0.32469 -0.106454,0.49196 -0.188168,0.67396 -0.511083,1.08808 -0.951879,1.62471 -0.777214,-0.21498 -0.777214,-0.21498 -1.5875,-0.52917 -0.08731,-0.26194 -0.174625,-0.52388 -0.264584,-0.79375 0.583229,-0.2237 1.16747,-0.44355 1.752865,-0.66146 0.325375,-0.12278 0.650751,-0.24556 0.985986,-0.37207 0.915158,-0.27435 1.606097,-0.34765 2.552816,-0.28939 v -0.52916 c 0.97827,-0.33049 1.956903,-0.65989 2.935867,-0.98832 0.494346,-0.16609 0.98841,-0.33302 1.482468,-0.49996 4.243468,-1.42214 4.243468,-1.42214 5.371248,-1.42214 z"
         fill="#232329"
         id="path16"
         style="fill:url(#linearGradient267);fill-opacity:1;stroke:#000000;stroke-width:0;stroke-dasharray:none;stroke-opacity:1"
         sodipodi:nodetypes="ccsccccccccccccccccccccccccccccccc" /><path
         d="m 36.810697,147.01868 c 3.440521,0.65196 6.749792,1.77489 10.054167,2.91042 v 0.52916 c 0.611187,0.0873 1.222375,0.17463 1.852083,0.26459 v 0.26458 c -0.229878,0.0351 -0.459755,0.0703 -0.696599,0.10645 -0.304911,0.0467 -0.609823,0.0935 -0.923974,0.1416 -0.300819,0.046 -0.601638,0.0921 -0.911572,0.13952 -0.585515,0.0914 -1.17055,0.18588 -1.754932,0.28422 -0.564278,0.093 -1.131352,0.16919 -1.699121,0.23772 -0.787762,0.13129 -1.294385,0.24005 -1.951302,0.67799 -0.174625,0.26194 -0.34925,0.52387 -0.529167,0.79375 -0.615443,0.10071 -1.233104,0.18857 -1.852083,0.26458 -0.261938,0.17463 -0.523875,0.34925 -0.79375,0.52917 -0.714168,-0.006 -0.714168,-0.006 -1.504818,-0.0992 -0.394441,-0.044 -0.394441,-0.044 -0.79685,-0.0889 -0.200887,-0.0252 -0.401774,-0.0505 -0.608749,-0.0765 -0.330729,-1.75287 -0.330729,-1.75287 0.264584,-2.64584 h 0.529166 c 0.03274,-0.20736 0.06549,-0.41473 0.09922,-0.62838 0.165365,-0.69453 0.165365,-0.69453 0.694531,-1.2237 h 0.79375 c 0.261938,-0.52388 0.523875,-1.04775 0.79375,-1.5875 -0.34925,-0.26194 -0.6985,-0.52388 -1.058333,-0.79375 z m -0.529167,3.175 0.264584,0.52917 z m -0.529166,0.79375 0.264583,0.52917 z m -0.264584,0.52917 0.264584,0.52916 z m -0.79375,1.32291 0.264584,0.52917 z m 1.5875,0.52917 1.058334,0.26458 z"
         fill="#1d1e24"
         id="path17"
         style="fill:url(#linearGradient268);fill-opacity:1;stroke:#000000;stroke-width:0;stroke-dasharray:none;stroke-opacity:1"
         sodipodi:nodetypes="scccccccccccccccccccccccsccccccccccccccc" /><path
         d="m -19.280969,176.38743 h 0.529167 c 0.341064,0.44442 0.341064,0.44442 0.694531,1.02526 0.118008,0.19031 0.236016,0.38063 0.357601,0.57671 0.270784,0.5147 0.270784,0.5147 0.270784,1.04386 0.174625,-0.0873 0.34925,-0.17462 0.529167,-0.26458 0.08731,-0.26194 0.174625,-0.52388 0.264583,-0.79375 1.785938,0.69453 1.785938,0.69453 2.38125,1.5875 0.08268,0.67799 0.08268,0.67799 0,1.32292 -0.79375,0.52916 -0.79375,0.52916 -1.30638,0.47955 -0.637975,-0.25132 -1.0533,-0.59407 -1.604036,-1.00872 -0.678979,-0.46432 -1.364824,-0.9182 -2.050521,-1.37253 -0.184516,-0.12261 -0.369032,-0.24522 -0.559139,-0.37155 -0.452845,-0.30086 -0.905943,-0.60135 -1.35909,-0.90175 0.34925,-0.26194 0.6985,-0.52388 1.058333,-0.79375 0.174625,0.17462 0.34925,0.34925 0.529167,0.52916 0.08731,-0.34925 0.174625,-0.6985 0.264583,-1.05833 z"
         fill="#262628"
         id="path18"
         style="fill:url(#linearGradient269);fill-opacity:1;stroke:#000000;stroke-width:0;stroke-dasharray:none;stroke-opacity:1"
         sodipodi:nodetypes="ccccccccccccccccc" /><path
         d="m -14.783052,147.81243 h 0.264583 c 0.03118,1.87071 -0.09323,3.6928 -0.264583,5.55625 l 0.79375,-2.91042 h 0.264583 c 0.06962,1.41614 -0.153648,2.56454 -0.628385,3.88607 -0.05866,0.17207 -0.117326,0.34413 -0.177767,0.52142 -0.296279,0.85485 -0.614667,1.67566 -1.045931,2.47168 -0.08731,-0.0873 -0.174625,-0.17463 -0.264583,-0.26458 0.02001,-3.1009 0.593073,-6.20275 1.058333,-9.26042 z m -0.529167,6.35 0.264584,1.05833 z"
         fill="#7d7c82"
         id="path19"
         style="fill:url(#linearGradient270);fill-opacity:1;stroke:#000000;stroke-width:0;stroke-dasharray:none;stroke-opacity:1"
         sodipodi:nodetypes="ccccccccccccc" /><path
         d="m -54.205968,150.45827 c -0.529167,0.52917 -0.529167,0.52917 -1.333252,0.58084 -0.313097,-0.006 -0.626194,-0.0123 -0.948779,-0.0186 -0.314462,-0.005 -0.628923,-0.01 -0.952914,-0.0145 -0.242155,-0.006 -0.484311,-0.0123 -0.733805,-0.0186 -0.03513,0.16234 -0.07026,0.32469 -0.106453,0.49196 -0.188168,0.67396 -0.511083,1.08808 -0.95188,1.6247 -0.777214,-0.21497 -0.777214,-0.21497 -1.5875,-0.52916 -0.08731,-0.26194 -0.174625,-0.52388 -0.264584,-0.79375 2.375319,-0.98386 4.273415,-1.53768 6.879167,-1.32292 z"
         fill="#424145"
         id="path20"
         style="fill:url(#linearGradient271);fill-opacity:1;stroke:#000000;stroke-width:0;stroke-dasharray:none;stroke-opacity:1"
         sodipodi:nodetypes="ccccccccccc" /><path
         d="m 18.819031,163.42285 c 0.174625,0.0873 0.34925,0.17462 0.529167,0.26458 -0.853126,0.56417 -1.707971,1.12568 -2.563151,1.68672 -0.241303,0.15962 -0.482607,0.31924 -0.731222,0.48369 l -0.710551,0.46509 c -0.214764,0.14133 -0.429528,0.28266 -0.6508,0.42827 -0.63656,0.37618 -1.266109,0.64945 -1.95886,0.90498 v -0.79375 l 0.590145,-0.31006 c 1.313193,-0.70083 2.48322,-1.40135 3.643189,-2.33577 0.611978,-0.32549 1.195083,-0.55822 1.852083,-0.79375 z"
         fill="#404145"
         id="path21"
         style="fill:url(#linearGradient272);fill-opacity:1;stroke:#000000;stroke-width:0;stroke-dasharray:none;stroke-opacity:1"
         sodipodi:nodetypes="ccccccccccc" /><path
         d="m -26.160135,140.13952 c -0.08731,0.26194 -0.174625,0.52387 -0.264583,0.79375 -0.311051,0.0246 -0.311051,0.0246 -0.628386,0.0496 -0.878093,0.19681 -1.380243,0.42816 -2.149739,0.8599 -1.639656,0.86746 -3.333531,1.03089 -5.159375,1.20716 0.59242,-0.59242 0.960945,-0.71302 1.749764,-0.96739 0.243008,-0.0795 0.486017,-0.15893 0.736389,-0.24081 l 0.771529,-0.24701 c 0.500687,-0.16226 1.001263,-0.32486 1.501717,-0.48783 0.222481,-0.0714 0.444961,-0.1429 0.674184,-0.21652 0.454816,-0.15469 0.903679,-0.32754 1.346558,-0.51367 0.628192,-0.23719 0.628192,-0.23719 1.421942,-0.23719 z"
         fill="#3e3f42"
         id="path22"
         style="fill:url(#linearGradient273);fill-opacity:1;stroke:#000000;stroke-width:0;stroke-dasharray:none;stroke-opacity:1"
         sodipodi:nodetypes="sccccccccccss" /><path
         d="m -50.766385,96.747851 c 2.138627,0.09721 4.065201,0.333245 6.085417,1.058333 -0.79648,0.247184 -1.023013,0.276357 -1.852084,0 -0.368934,-0.01763 -0.738637,-0.02259 -1.107942,-0.01654 -0.332879,0.0055 -0.665758,0.01091 -1.008724,0.01654 l 0.79375,0.79375 c -1.953847,-0.130256 -1.953847,-0.130256 -2.778125,-0.810286 l -0.396875,-0.51263 c 0.08731,-0.174625 0.174625,-0.34925 0.264583,-0.529167 z"
         fill="#515153"
         id="path23"
         style="fill:url(#linearGradient274);fill-opacity:1;stroke:#000000;stroke-width:0;stroke-dasharray:none;stroke-opacity:1"
         sodipodi:nodetypes="ccccccccc" /><path
         d="m 36.016947,149.39993 c 0.174625,0.0873 0.34925,0.17462 0.529167,0.26458 0.129591,1.94388 0.129591,1.94388 -0.496094,2.77813 -0.56224,0.39687 -0.56224,0.39687 -1.091406,0.39687 -0.174625,0.17463 -0.34925,0.34925 -0.529167,0.52917 0.08731,-0.61119 0.174625,-1.22238 0.264583,-1.85208 0.261938,-0.0873 0.523875,-0.17463 0.79375,-0.26459 0.0382,-0.20736 0.0764,-0.41473 0.115756,-0.62838 0.148828,-0.69453 0.148828,-0.69453 0.413411,-1.2237 z m -0.264583,1.5875 0.264583,0.52917 z m -0.264584,0.52917 0.264584,0.52916 z"
         fill="#444548"
         id="path24"
         style="fill:url(#linearGradient275);fill-opacity:1;stroke:#000000;stroke-width:0;stroke-dasharray:none;stroke-opacity:1"
         sodipodi:nodetypes="ccccccccccccccc" /><path
         d="m -50.237218,134.84785 c 0.174625,0.0873 0.34925,0.17462 0.529167,0.26458 -0.429524,0.45213 -0.871324,0.89283 -1.322917,1.32292 h -0.529167 v 0.52917 c -0.386539,0.39894 -0.386539,0.39894 -0.892968,0.82682 -0.165758,0.14256 -0.331515,0.28513 -0.502295,0.43201 -0.45682,0.32867 -0.45682,0.32867 -0.985987,0.32867 0.383763,-1.08733 0.928981,-1.96654 1.5875,-2.91042 l 0.264584,0.52917 c 0.695593,-0.40272 1.281551,-0.75239 1.852083,-1.32292 z"
         fill="#565657"
         id="path25"
         style="fill:url(#linearGradient276);fill-opacity:1;stroke:#000000;stroke-width:0;stroke-dasharray:none;stroke-opacity:1"
         sodipodi:nodetypes="ccccccccccc" /><path
         d="m -4.9934689,126.38118 c 0.2619375,0.0873 0.523875,0.17462 0.79375,0.26458 l 0.2645833,2.11667 c -0.087312,-0.17463 -0.174625,-0.34925 -0.2645833,-0.52917 -0.2619375,0.13097 -0.2619375,0.13097 -0.5291667,0.26459 -0.1625411,0.61343 -0.1625411,0.61343 -0.2645833,1.32291 -0.1157552,0.72761 -0.1157552,0.72761 -0.2645833,1.32292 -0.174625,0.0873 -0.34925,0.17462 -0.5291667,0.26458 0.1648887,-1.70385 0.4339385,-3.35378 0.79375,-5.02708 z"
         fill="#636266"
         id="path26"
         style="fill:url(#linearGradient277);fill-opacity:1;stroke:#000000;stroke-width:0;stroke-dasharray:none;stroke-opacity:1"
         sodipodi:nodetypes="ccccccccc" /><path
         d="m 6.6481976,178.5041 c -0.074723,0.38633 -0.1524704,0.77208 -0.2315104,1.15755 l -0.1302246,0.65113 c -0.1674317,0.57257 -0.1674317,0.57257 -0.6965983,1.10174 -0.5682249,-0.85234 -0.6776159,-1.12701 -0.5291667,-2.11667 0.5408733,-0.52284 0.8248868,-0.79375 1.5875,-0.79375 z"
         fill="#000111"
         id="path27"
         style="fill:url(#linearGradient278);fill-opacity:1;stroke:#000000;stroke-width:0;stroke-dasharray:none;stroke-opacity:1"
         sodipodi:nodetypes="cccccc" /><path
         d="m 29.931531,105.74368 v 0.79375 c -0.90819,0.84483 -1.825125,1.51018 -2.910417,2.11667 0.34772,-1.04316 0.737958,-1.67735 1.5875,-2.38125 0.727605,-0.33073 0.727605,-0.33073 1.322917,-0.52917 z"
         fill="#202023"
         id="path28"
         style="fill:url(#linearGradient279);fill-opacity:1;stroke:#000000;stroke-width:0;stroke-dasharray:none;stroke-opacity:1"
         sodipodi:nodetypes="ccccc" /><path
         d="m -15.841385,157.33743 c 0.0382,0.15825 0.0764,0.31651 0.115755,0.47956 0.118995,0.46275 0.262314,0.91923 0.413412,1.37252 0.174625,0.0873 0.34925,0.17463 0.529166,0.26459 l -0.529166,1.32291 c -0.545703,-0.24804 -0.545703,-0.24804 -1.058334,-0.79375 -0.02935,-0.81454 0.07979,-1.58838 0.264584,-2.38125 0.08731,-0.0873 0.174625,-0.17462 0.264583,-0.26458 z"
         fill="#575a60"
         id="path29"
         style="fill:url(#linearGradient280);fill-opacity:1;stroke:#000000;stroke-width:0;stroke-dasharray:none;stroke-opacity:1"
         sodipodi:nodetypes="cccccccc" /><path
         d="m 34.958614,152.83952 c 0.08731,0.17462 0.174625,0.34925 0.264583,0.52917 0.234823,-0.0286 0.234823,-0.0286 0.47439,-0.0579 1.082053,-0.12709 2.138067,-0.24192 3.229777,-0.20671 -0.479557,0.54571 -0.479557,0.54571 -1.322917,1.05834 -0.986975,0.0152 -1.937181,-0.10778 -2.910416,-0.26459 0.08731,-0.34925 0.174625,-0.6985 0.264583,-1.05833 z m 1.322917,0.52917 1.058333,0.26458 z"
         fill="#67676d"
         id="path30"
         style="fill:url(#linearGradient281);fill-opacity:1;stroke:#000000;stroke-width:0;stroke-dasharray:none;stroke-opacity:1"
         sodipodi:nodetypes="sccccccsccc" /><path
         d="m -18.487219,176.38743 c 0.261937,0.0873 0.523875,0.17462 0.79375,0.26458 0.181901,0.54571 0.181901,0.54571 0.264583,1.05834 h 0.529167 v 1.05833 c 0.174625,0.0873 0.34925,0.17462 0.529167,0.26458 h -1.058334 c -0.436562,-0.78581 -0.873125,-1.57162 -1.322916,-2.38125 0.08731,-0.0873 0.174625,-0.17462 0.264583,-0.26458 z"
         fill="#000211"
         id="path31"
         style="fill:url(#linearGradient282);fill-opacity:1;stroke:#000000;stroke-width:0;stroke-dasharray:none;stroke-opacity:1"
         sodipodi:nodetypes="ccccccccc" /><path
         d="m 23.052364,161.0416 c -1.00372,0.85164 -2.026257,1.48598 -3.175,2.11667 0.03307,-0.46302 0.03307,-0.46302 0.264583,-1.05834 0.974675,-0.79746 1.63893,-1.20792 2.910417,-1.05833 z"
         fill="#3b3b3f"
         id="path32"
         style="fill:url(#linearGradient283);fill-opacity:1;stroke:#000000;stroke-width:0;stroke-dasharray:none;stroke-opacity:1"
         sodipodi:nodetypes="cccc" /><path
         d="m 17.760697,109.71243 c 0.34925,0.43656 0.6985,0.87312 1.058333,1.32292 -0.429524,0.45213 -0.871323,0.89282 -1.322916,1.32291 h -0.529167 c 0.134176,-0.98395 0.295297,-1.78184 0.79375,-2.64583 z"
         fill="#626264"
         id="path33"
         style="fill:url(#linearGradient284);fill-opacity:1;stroke:#000000;stroke-width:0;stroke-dasharray:none;stroke-opacity:1"
         sodipodi:nodetypes="ccccc" /><path
         d="m 40.514864,97.012434 c -0.08731,0.261937 -0.174625,0.523875 -0.264583,0.79375 -0.545703,0.181901 -0.545703,0.181901 -1.058334,0.264583 v -0.264583 c -0.873125,-0.08731 -1.74625,-0.174625 -2.645833,-0.264583 v -0.264584 c 1.312528,-0.350007 2.622316,-0.288113 3.96875,-0.264583 z"
         fill="#464548"
         id="path34"
         style="fill:url(#linearGradient285);fill-opacity:1;stroke:#000000;stroke-width:0;stroke-dasharray:none;stroke-opacity:1"
         sodipodi:nodetypes="ccccccc" /><path
         d="m -26.160135,140.13952 c -0.08731,0.26194 -0.174625,0.52387 -0.264583,0.79375 -0.212825,0.0327 -0.425649,0.0655 -0.644922,0.0992 -1.11683,0.19593 -2.218756,0.44159 -3.323828,0.69453 0.626469,-0.62647 1.136944,-0.79348 1.967838,-1.09141 0.25614,-0.0935 0.512279,-0.1869 0.77618,-0.28318 0.695565,-0.21291 0.695565,-0.21291 1.489315,-0.21291 z"
         fill="#56585a"
         id="path36"
         style="fill:url(#linearGradient287);fill-opacity:1;stroke:#000000;stroke-width:0;stroke-dasharray:none;stroke-opacity:1"
         sodipodi:nodetypes="sccccccs" /><path
         d="m 42.63153,135.90618 c 0.815154,0.73364 1.240302,1.33966 1.5875,2.38125 -0.882447,-0.36515 -1.37215,-0.75393 -1.852083,-1.5875 0.08731,-0.26194 0.174625,-0.52388 0.264583,-0.79375 z"
         fill="#78797a"
         id="path37"
         style="fill:url(#linearGradient288);fill-opacity:1;stroke:#000000;stroke-width:0;stroke-dasharray:none;stroke-opacity:1"
         sodipodi:nodetypes="cccc" /><path
         d="m -50.766385,96.747851 c 0.873125,0.08731 1.74625,0.174625 2.645833,0.264583 v 0.264584 c -0.436562,0.08731 -0.873125,0.174625 -1.322916,0.264583 v 0.79375 c -0.652992,-0.30473 -1.07099,-0.541823 -1.5875,-1.058333 0.08731,-0.174625 0.174625,-0.34925 0.264583,-0.529167 z"
         fill="#85868b"
         id="path38"
         style="fill:url(#linearGradient289);fill-opacity:1;stroke:#000000;stroke-width:0;stroke-dasharray:none;stroke-opacity:1"
         sodipodi:nodetypes="ccccccc" /><path
         d="m 14.850281,166.06868 c -0.264583,0.79375 -0.264583,0.79375 -0.909505,1.25677 -0.335608,0.16371 -0.335608,0.16371 -0.677995,0.33073 -0.174625,-0.0873 -0.34925,-0.17463 -0.529167,-0.26458 v -0.52917 c 0.768744,-0.5402 1.164543,-0.79375 2.116667,-0.79375 z"
         fill="#35373b"
         id="path39"
         style="fill:url(#linearGradient290);fill-opacity:1;stroke:#000000;stroke-width:0;stroke-dasharray:none;stroke-opacity:1"
         sodipodi:nodetypes="cccccc" /><path
         d="m 21.729447,162.09993 c 0.174625,0.0873 0.34925,0.17462 0.529167,0.26458 -0.595313,0.678 -0.595313,0.678 -1.322917,1.32292 -0.34925,-0.0873 -0.6985,-0.17463 -1.058333,-0.26458 0.611187,-0.43657 1.222375,-0.87313 1.852083,-1.32292 z"
         fill="#51525c"
         id="path40"
         style="fill:url(#linearGradient291);fill-opacity:1;stroke:#000000;stroke-width:0;stroke-dasharray:none;stroke-opacity:1"
         sodipodi:nodetypes="ccccc" /><path
         d="m 32.048197,154.16243 c 0.174625,0.0873 0.34925,0.17462 0.529167,0.26458 0.555152,-0.10567 0.555152,-0.10567 1.058333,-0.26458 -0.625993,0.69189 -1.286005,1.16152 -2.116667,1.5875 -0.174625,-0.0873 -0.34925,-0.17463 -0.529166,-0.26458 0.34925,-0.43657 0.6985,-0.87313 1.058333,-1.32292 z"
         fill="#525254"
         id="path41"
         style="fill:url(#linearGradient292);fill-opacity:1;stroke:#000000;stroke-width:0;stroke-dasharray:none;stroke-opacity:1"
         sodipodi:nodetypes="cccccc" /><path
         d="m -49.178885,148.60618 c -0.624334,0.55496 -0.938257,0.78556 -1.785937,0.84336 -0.29468,-0.0246 -0.29468,-0.0246 -0.595313,-0.0496 0.837185,-0.87524 1.190001,-1.15112 2.38125,-0.79375 z"
         fill="#020204"
         id="path42"
         style="fill:url(#linearGradient293);fill-opacity:1;stroke:#000000;stroke-width:0;stroke-dasharray:none;stroke-opacity:1"
         sodipodi:nodetypes="ccccc" /><path
         d="m 28.873197,156.2791 c 0.711068,-0.0827 0.711068,-0.0827 1.322917,0 -0.668835,0.7405 -1.112338,1.17944 -2.116667,1.32292 0.314193,-0.66146 0.314193,-0.66146 0.79375,-1.32292 z"
         fill="#404144"
         id="path43"
         style="fill:url(#linearGradient294);fill-opacity:1;stroke:#000000;stroke-width:0;stroke-dasharray:none;stroke-opacity:1"
         sodipodi:nodetypes="cccc" /><path
         d="m 36.281531,150.72285 c 0.198437,0.46302 0.198437,0.46302 0.264583,1.05833 -0.51263,0.59532 -0.51263,0.59532 -1.058333,1.05834 -0.174625,-0.0873 -0.34925,-0.17463 -0.529167,-0.26459 0.348664,-0.69732 0.831374,-1.24954 1.322917,-1.85208 z"
         fill="#696a6d"
         id="path44"
         style="fill:url(#linearGradient295);fill-opacity:1;stroke:#000000;stroke-width:0;stroke-dasharray:none;stroke-opacity:1"
         sodipodi:nodetypes="ccccc" /><path
         d="m 7.7065309,141.19785 c 0,0.79375 0,0.79375 -0.3141927,1.2237 -0.5891128,0.44691 -1.0771223,0.53036 -1.8024739,0.62838 0.6657492,-0.68952 1.3365013,-1.29482 2.1166666,-1.85208 z"
         fill="#535457"
         id="path45"
         style="fill:url(#linearGradient296);fill-opacity:1;stroke:#000000;stroke-width:0;stroke-dasharray:none;stroke-opacity:1"
         sodipodi:nodetypes="cccc" /><path
         d="m 11.410698,138.8166 c -0.268432,0.67108 -0.445917,1.0037 -1.058333,1.4056 -0.174625,0.06 -0.34925,0.12005 -0.529167,0.1819 -0.174625,-0.0873 -0.34925,-0.17463 -0.5291666,-0.26458 1.5213546,-1.32292 1.5213546,-1.32292 2.1166666,-1.32292 z"
         fill="#49484a"
         id="path46"
         style="fill:url(#linearGradient297);fill-opacity:1;stroke:#000000;stroke-width:0;stroke-dasharray:none;stroke-opacity:1"
         sodipodi:nodetypes="ccccc" /><path
         d="m -53.147635,136.96452 c 0.261937,0.0873 0.523875,0.17462 0.79375,0.26458 -0.198438,0.51263 -0.198438,0.51263 -0.529167,1.05834 -0.562239,0.19843 -0.562239,0.19843 -1.058333,0.26458 0.496094,-1.28984 0.496094,-1.28984 0.79375,-1.5875 z"
         fill="#858788"
         id="path47"
         style="fill:url(#linearGradient298);fill-opacity:1;stroke:#000000;stroke-width:0;stroke-dasharray:none;stroke-opacity:1"
         sodipodi:nodetypes="ccccc" /><path
         d="m -28.541385,111.03535 0.79375,0.52917 c 0.174625,-0.0873 0.34925,-0.17463 0.529167,-0.26459 0.174625,0.43657 0.34925,0.87313 0.529166,1.32292 h -0.79375 v -0.52917 c -0.34925,-0.17462 -0.6985,-0.34925 -1.058333,-0.52916 z"
         fill="#797b7d"
         id="path48"
         style="fill:url(#linearGradient299);fill-opacity:1;stroke:#000000;stroke-width:0;stroke-dasharray:none;stroke-opacity:1"
         sodipodi:nodetypes="cccccccc" /><path
         d="m -41.505968,187.49993 0.529167,0.26458 z"
         fill="#c4c0c3"
         id="path55"
         style="fill:url(#linearGradient312);fill-opacity:1;stroke:#000000;stroke-width:0;stroke-dasharray:none;stroke-opacity:1"
         sodipodi:nodetypes="ccc" /></g><path
       d=""
       fill="#afaeaf"
       id="path57"
       style="stroke-width:0.264583" /></g></svg>
